<?xml version="1.0" encoding="utf-8" standalone="no"?>
<!DOCTYPE svg PUBLIC "-//W3C//DTD SVG 1.1//EN"
  "http://www.w3.org/Graphics/SVG/1.1/DTD/svg11.dtd">
<!-- Created with matplotlib (https://matplotlib.org/) -->
<svg height="252.018125pt" version="1.1" viewBox="0 0 375.603125 252.018125" width="375.603125pt" xmlns="http://www.w3.org/2000/svg" xmlns:xlink="http://www.w3.org/1999/xlink">
 <defs>
  <style type="text/css">
*{stroke-linecap:butt;stroke-linejoin:round;}
  </style>
 </defs>
 <g id="figure_1">
  <g id="patch_1">
   <path d="M 0 252.018125 
L 375.603125 252.018125 
L 375.603125 0 
L 0 0 
z
" style="fill:none;"/>
  </g>
  <g id="axes_1">
   <g id="patch_2">
    <path d="M 30.103125 228.14 
L 364.903125 228.14 
L 364.903125 10.7 
L 30.103125 10.7 
z
" style="fill:#ffffff;"/>
   </g>
   <g id="patch_3">
    <path clip-path="url(#pfec11bce55)" d="M 65.954962 228.14 
L 71.216889 228.14 
L 71.216889 227.663393 
L 65.954962 227.663393 
z
" style="fill:#1f77b4;opacity:0.4;"/>
   </g>
   <g id="patch_4">
    <path clip-path="url(#pfec11bce55)" d="M 71.216889 228.14 
L 76.478815 228.14 
L 76.478815 228.14 
L 71.216889 228.14 
z
" style="fill:#1f77b4;opacity:0.4;"/>
   </g>
   <g id="patch_5">
    <path clip-path="url(#pfec11bce55)" d="M 76.478815 228.14 
L 81.740742 228.14 
L 81.740742 228.14 
L 76.478815 228.14 
z
" style="fill:#1f77b4;opacity:0.4;"/>
   </g>
   <g id="patch_6">
    <path clip-path="url(#pfec11bce55)" d="M 81.740742 228.14 
L 87.002668 228.14 
L 87.002668 228.14 
L 81.740742 228.14 
z
" style="fill:#1f77b4;opacity:0.4;"/>
   </g>
   <g id="patch_7">
    <path clip-path="url(#pfec11bce55)" d="M 87.002668 228.14 
L 92.264595 228.14 
L 92.264595 227.42509 
L 87.002668 227.42509 
z
" style="fill:#1f77b4;opacity:0.4;"/>
   </g>
   <g id="patch_8">
    <path clip-path="url(#pfec11bce55)" d="M 92.264595 228.14 
L 97.526521 228.14 
L 97.526521 227.42509 
L 92.264595 227.42509 
z
" style="fill:#1f77b4;opacity:0.4;"/>
   </g>
   <g id="patch_9">
    <path clip-path="url(#pfec11bce55)" d="M 97.526521 228.14 
L 102.788448 228.14 
L 102.788448 227.901697 
L 97.526521 227.901697 
z
" style="fill:#1f77b4;opacity:0.4;"/>
   </g>
   <g id="patch_10">
    <path clip-path="url(#pfec11bce55)" d="M 102.788448 228.14 
L 108.050374 228.14 
L 108.050374 227.42509 
L 102.788448 227.42509 
z
" style="fill:#1f77b4;opacity:0.4;"/>
   </g>
   <g id="patch_11">
    <path clip-path="url(#pfec11bce55)" d="M 108.050374 228.14 
L 113.312301 228.14 
L 113.312301 226.948483 
L 108.050374 226.948483 
z
" style="fill:#1f77b4;opacity:0.4;"/>
   </g>
   <g id="patch_12">
    <path clip-path="url(#pfec11bce55)" d="M 113.312301 228.14 
L 118.574227 228.14 
L 118.574227 226.471876 
L 113.312301 226.471876 
z
" style="fill:#1f77b4;opacity:0.4;"/>
   </g>
   <g id="patch_13">
    <path clip-path="url(#pfec11bce55)" d="M 118.574227 228.14 
L 123.836154 228.14 
L 123.836154 224.088841 
L 118.574227 224.088841 
z
" style="fill:#1f77b4;opacity:0.4;"/>
   </g>
   <g id="patch_14">
    <path clip-path="url(#pfec11bce55)" d="M 123.836154 228.14 
L 129.09808 228.14 
L 129.09808 218.846165 
L 123.836154 218.846165 
z
" style="fill:#1f77b4;opacity:0.4;"/>
   </g>
   <g id="patch_15">
    <path clip-path="url(#pfec11bce55)" d="M 129.09808 228.14 
L 134.360007 228.14 
L 134.360007 210.505543 
L 129.09808 210.505543 
z
" style="fill:#1f77b4;opacity:0.4;"/>
   </g>
   <g id="patch_16">
    <path clip-path="url(#pfec11bce55)" d="M 134.360007 228.14 
L 139.621933 228.14 
L 139.621933 197.637156 
L 134.360007 197.637156 
z
" style="fill:#1f77b4;opacity:0.4;"/>
   </g>
   <g id="patch_17">
    <path clip-path="url(#pfec11bce55)" d="M 139.621933 228.14 
L 144.88386 228.14 
L 144.88386 180.241003 
L 139.621933 180.241003 
z
" style="fill:#1f77b4;opacity:0.4;"/>
   </g>
   <g id="patch_18">
    <path clip-path="url(#pfec11bce55)" d="M 144.88386 228.14 
L 150.145786 228.14 
L 150.145786 175.95154 
L 144.88386 175.95154 
z
" style="fill:#1f77b4;opacity:0.4;"/>
   </g>
   <g id="patch_19">
    <path clip-path="url(#pfec11bce55)" d="M 150.145786 228.14 
L 155.407713 228.14 
L 155.407713 166.181098 
L 150.145786 166.181098 
z
" style="fill:#1f77b4;opacity:0.4;"/>
   </g>
   <g id="patch_20">
    <path clip-path="url(#pfec11bce55)" d="M 155.407713 228.14 
L 160.669639 228.14 
L 160.669639 156.648959 
L 155.407713 156.648959 
z
" style="fill:#1f77b4;opacity:0.4;"/>
   </g>
   <g id="patch_21">
    <path clip-path="url(#pfec11bce55)" d="M 160.669639 228.14 
L 165.931566 228.14 
L 165.931566 172.376988 
L 160.669639 172.376988 
z
" style="fill:#1f77b4;opacity:0.4;"/>
   </g>
   <g id="patch_22">
    <path clip-path="url(#pfec11bce55)" d="M 165.931566 228.14 
L 171.193492 228.14 
L 171.193492 155.934049 
L 165.931566 155.934049 
z
" style="fill:#1f77b4;opacity:0.4;"/>
   </g>
   <g id="patch_23">
    <path clip-path="url(#pfec11bce55)" d="M 171.193492 228.14 
L 176.455419 228.14 
L 176.455419 122.33326 
L 171.193492 122.33326 
z
" style="fill:#1f77b4;opacity:0.4;"/>
   </g>
   <g id="patch_24">
    <path clip-path="url(#pfec11bce55)" d="M 176.455419 228.14 
L 181.717345 228.14 
L 181.717345 105.413714 
L 176.455419 105.413714 
z
" style="fill:#1f77b4;opacity:0.4;"/>
   </g>
   <g id="patch_25">
    <path clip-path="url(#pfec11bce55)" d="M 181.717345 228.14 
L 186.979272 228.14 
L 186.979272 123.763081 
L 181.717345 123.763081 
z
" style="fill:#1f77b4;opacity:0.4;"/>
   </g>
   <g id="patch_26">
    <path clip-path="url(#pfec11bce55)" d="M 186.979272 228.14 
L 192.241198 228.14 
L 192.241198 113.277728 
L 186.979272 113.277728 
z
" style="fill:#1f77b4;opacity:0.4;"/>
   </g>
   <g id="patch_27">
    <path clip-path="url(#pfec11bce55)" d="M 192.241198 228.14 
L 197.503125 228.14 
L 197.503125 110.65639 
L 192.241198 110.65639 
z
" style="fill:#1f77b4;opacity:0.4;"/>
   </g>
   <g id="patch_28">
    <path clip-path="url(#pfec11bce55)" d="M 197.503125 228.14 
L 202.765052 228.14 
L 202.765052 113.277728 
L 197.503125 113.277728 
z
" style="fill:#1f77b4;opacity:0.4;"/>
   </g>
   <g id="patch_29">
    <path clip-path="url(#pfec11bce55)" d="M 202.765052 228.14 
L 208.026978 228.14 
L 208.026978 82.536581 
L 202.765052 82.536581 
z
" style="fill:#1f77b4;opacity:0.4;"/>
   </g>
   <g id="patch_30">
    <path clip-path="url(#pfec11bce55)" d="M 208.026978 228.14 
L 213.288905 228.14 
L 213.288905 80.391849 
L 208.026978 80.391849 
z
" style="fill:#1f77b4;opacity:0.4;"/>
   </g>
   <g id="patch_31">
    <path clip-path="url(#pfec11bce55)" d="M 213.288905 228.14 
L 218.550831 228.14 
L 218.550831 67.285159 
L 213.288905 67.285159 
z
" style="fill:#1f77b4;opacity:0.4;"/>
   </g>
   <g id="patch_32">
    <path clip-path="url(#pfec11bce55)" d="M 218.550831 228.14 
L 223.812758 228.14 
L 223.812758 21.054286 
L 218.550831 21.054286 
z
" style="fill:#1f77b4;opacity:0.4;"/>
   </g>
   <g id="patch_33">
    <path clip-path="url(#pfec11bce55)" d="M 223.812758 228.14 
L 229.074684 228.14 
L 229.074684 70.383104 
L 223.812758 70.383104 
z
" style="fill:#1f77b4;opacity:0.4;"/>
   </g>
   <g id="patch_34">
    <path clip-path="url(#pfec11bce55)" d="M 229.074684 228.14 
L 234.336611 228.14 
L 234.336611 44.646329 
L 229.074684 44.646329 
z
" style="fill:#1f77b4;opacity:0.4;"/>
   </g>
   <g id="patch_35">
    <path clip-path="url(#pfec11bce55)" d="M 234.336611 228.14 
L 239.598537 228.14 
L 239.598537 68.238373 
L 234.336611 68.238373 
z
" style="fill:#1f77b4;opacity:0.4;"/>
   </g>
   <g id="patch_36">
    <path clip-path="url(#pfec11bce55)" d="M 239.598537 228.14 
L 244.860464 228.14 
L 244.860464 110.65639 
L 239.598537 110.65639 
z
" style="fill:#1f77b4;opacity:0.4;"/>
   </g>
   <g id="patch_37">
    <path clip-path="url(#pfec11bce55)" d="M 244.860464 228.14 
L 250.12239 228.14 
L 250.12239 57.514716 
L 244.860464 57.514716 
z
" style="fill:#1f77b4;opacity:0.4;"/>
   </g>
   <g id="patch_38">
    <path clip-path="url(#pfec11bce55)" d="M 250.12239 228.14 
L 255.384317 228.14 
L 255.384317 77.293904 
L 250.12239 77.293904 
z
" style="fill:#1f77b4;opacity:0.4;"/>
   </g>
   <g id="patch_39">
    <path clip-path="url(#pfec11bce55)" d="M 255.384317 228.14 
L 260.646243 228.14 
L 260.646243 95.881575 
L 255.384317 95.881575 
z
" style="fill:#1f77b4;opacity:0.4;"/>
   </g>
   <g id="patch_40">
    <path clip-path="url(#pfec11bce55)" d="M 260.646243 228.14 
L 265.90817 228.14 
L 265.90817 103.745589 
L 260.646243 103.745589 
z
" style="fill:#1f77b4;opacity:0.4;"/>
   </g>
   <g id="patch_41">
    <path clip-path="url(#pfec11bce55)" d="M 265.90817 228.14 
L 271.170096 228.14 
L 271.170096 102.792375 
L 265.90817 102.792375 
z
" style="fill:#1f77b4;opacity:0.4;"/>
   </g>
   <g id="patch_42">
    <path clip-path="url(#pfec11bce55)" d="M 271.170096 228.14 
L 276.432023 228.14 
L 276.432023 135.439951 
L 271.170096 135.439951 
z
" style="fill:#1f77b4;opacity:0.4;"/>
   </g>
   <g id="patch_43">
    <path clip-path="url(#pfec11bce55)" d="M 276.432023 228.14 
L 281.693949 228.14 
L 281.693949 154.504228 
L 276.432023 154.504228 
z
" style="fill:#1f77b4;opacity:0.4;"/>
   </g>
   <g id="patch_44">
    <path clip-path="url(#pfec11bce55)" d="M 281.693949 228.14 
L 286.955876 228.14 
L 286.955876 145.210393 
L 281.693949 145.210393 
z
" style="fill:#1f77b4;opacity:0.4;"/>
   </g>
   <g id="patch_45">
    <path clip-path="url(#pfec11bce55)" d="M 286.955876 228.14 
L 292.217802 228.14 
L 292.217802 130.912185 
L 286.955876 130.912185 
z
" style="fill:#1f77b4;opacity:0.4;"/>
   </g>
   <g id="patch_46">
    <path clip-path="url(#pfec11bce55)" d="M 292.217802 228.14 
L 297.479729 228.14 
L 297.479729 151.88289 
L 292.217802 151.88289 
z
" style="fill:#1f77b4;opacity:0.4;"/>
   </g>
   <g id="patch_47">
    <path clip-path="url(#pfec11bce55)" d="M 297.479729 228.14 
L 302.741655 228.14 
L 302.741655 174.998326 
L 297.479729 174.998326 
z
" style="fill:#1f77b4;opacity:0.4;"/>
   </g>
   <g id="patch_48">
    <path clip-path="url(#pfec11bce55)" d="M 302.741655 228.14 
L 308.003582 228.14 
L 308.003582 180.955913 
L 302.741655 180.955913 
z
" style="fill:#1f77b4;opacity:0.4;"/>
   </g>
   <g id="patch_49">
    <path clip-path="url(#pfec11bce55)" d="M 308.003582 228.14 
L 313.265508 228.14 
L 313.265508 185.721983 
L 308.003582 185.721983 
z
" style="fill:#1f77b4;opacity:0.4;"/>
   </g>
   <g id="patch_50">
    <path clip-path="url(#pfec11bce55)" d="M 313.265508 228.14 
L 318.527435 228.14 
L 318.527435 187.151803 
L 313.265508 187.151803 
z
" style="fill:#1f77b4;opacity:0.4;"/>
   </g>
   <g id="patch_51">
    <path clip-path="url(#pfec11bce55)" d="M 318.527435 228.14 
L 323.789361 228.14 
L 323.789361 202.164922 
L 318.527435 202.164922 
z
" style="fill:#1f77b4;opacity:0.4;"/>
   </g>
   <g id="patch_52">
    <path clip-path="url(#pfec11bce55)" d="M 323.789361 228.14 
L 329.051288 228.14 
L 329.051288 201.926618 
L 323.789361 201.926618 
z
" style="fill:#1f77b4;opacity:0.4;"/>
   </g>
   <g id="matplotlib.axis_1">
    <g id="xtick_1">
     <g id="line2d_1">
      <defs>
       <path d="M 0 0 
L 0 3.5 
" id="m65e44b91f3" style="stroke:#000000;stroke-width:0.8;"/>
      </defs>
      <g>
       <use style="stroke:#000000;stroke-width:0.8;" x="48.023042" xlink:href="#m65e44b91f3" y="228.14"/>
      </g>
     </g>
     <g id="text_1">
      <!-- −4 -->
      <defs>
       <path d="M 10.59375 35.5 
L 73.1875 35.5 
L 73.1875 27.203125 
L 10.59375 27.203125 
z
" id="DejaVuSans-8722"/>
       <path d="M 37.796875 64.3125 
L 12.890625 25.390625 
L 37.796875 25.390625 
z
M 35.203125 72.90625 
L 47.609375 72.90625 
L 47.609375 25.390625 
L 58.015625 25.390625 
L 58.015625 17.1875 
L 47.609375 17.1875 
L 47.609375 0 
L 37.796875 0 
L 37.796875 17.1875 
L 4.890625 17.1875 
L 4.890625 26.703125 
z
" id="DejaVuSans-52"/>
      </defs>
      <g transform="translate(40.651948 242.738437)scale(0.1 -0.1)">
       <use xlink:href="#DejaVuSans-8722"/>
       <use x="83.789062" xlink:href="#DejaVuSans-52"/>
      </g>
     </g>
    </g>
    <g id="xtick_2">
     <g id="line2d_2">
      <g>
       <use style="stroke:#000000;stroke-width:0.8;" x="92.892012" xlink:href="#m65e44b91f3" y="228.14"/>
      </g>
     </g>
     <g id="text_2">
      <!-- −3 -->
      <defs>
       <path d="M 40.578125 39.3125 
Q 47.65625 37.796875 51.625 33 
Q 55.609375 28.21875 55.609375 21.1875 
Q 55.609375 10.40625 48.1875 4.484375 
Q 40.765625 -1.421875 27.09375 -1.421875 
Q 22.515625 -1.421875 17.65625 -0.515625 
Q 12.796875 0.390625 7.625 2.203125 
L 7.625 11.71875 
Q 11.71875 9.328125 16.59375 8.109375 
Q 21.484375 6.890625 26.8125 6.890625 
Q 36.078125 6.890625 40.9375 10.546875 
Q 45.796875 14.203125 45.796875 21.1875 
Q 45.796875 27.640625 41.28125 31.265625 
Q 36.765625 34.90625 28.71875 34.90625 
L 20.21875 34.90625 
L 20.21875 43.015625 
L 29.109375 43.015625 
Q 36.375 43.015625 40.234375 45.921875 
Q 44.09375 48.828125 44.09375 54.296875 
Q 44.09375 59.90625 40.109375 62.90625 
Q 36.140625 65.921875 28.71875 65.921875 
Q 24.65625 65.921875 20.015625 65.03125 
Q 15.375 64.15625 9.8125 62.3125 
L 9.8125 71.09375 
Q 15.4375 72.65625 20.34375 73.4375 
Q 25.25 74.21875 29.59375 74.21875 
Q 40.828125 74.21875 47.359375 69.109375 
Q 53.90625 64.015625 53.90625 55.328125 
Q 53.90625 49.265625 50.4375 45.09375 
Q 46.96875 40.921875 40.578125 39.3125 
z
" id="DejaVuSans-51"/>
      </defs>
      <g transform="translate(85.520918 242.738437)scale(0.1 -0.1)">
       <use xlink:href="#DejaVuSans-8722"/>
       <use x="83.789062" xlink:href="#DejaVuSans-51"/>
      </g>
     </g>
    </g>
    <g id="xtick_3">
     <g id="line2d_3">
      <g>
       <use style="stroke:#000000;stroke-width:0.8;" x="137.760983" xlink:href="#m65e44b91f3" y="228.14"/>
      </g>
     </g>
     <g id="text_3">
      <!-- −2 -->
      <defs>
       <path d="M 19.1875 8.296875 
L 53.609375 8.296875 
L 53.609375 0 
L 7.328125 0 
L 7.328125 8.296875 
Q 12.9375 14.109375 22.625 23.890625 
Q 32.328125 33.6875 34.8125 36.53125 
Q 39.546875 41.84375 41.421875 45.53125 
Q 43.3125 49.21875 43.3125 52.78125 
Q 43.3125 58.59375 39.234375 62.25 
Q 35.15625 65.921875 28.609375 65.921875 
Q 23.96875 65.921875 18.8125 64.3125 
Q 13.671875 62.703125 7.8125 59.421875 
L 7.8125 69.390625 
Q 13.765625 71.78125 18.9375 73 
Q 24.125 74.21875 28.421875 74.21875 
Q 39.75 74.21875 46.484375 68.546875 
Q 53.21875 62.890625 53.21875 53.421875 
Q 53.21875 48.921875 51.53125 44.890625 
Q 49.859375 40.875 45.40625 35.40625 
Q 44.1875 33.984375 37.640625 27.21875 
Q 31.109375 20.453125 19.1875 8.296875 
z
" id="DejaVuSans-50"/>
      </defs>
      <g transform="translate(130.389889 242.738437)scale(0.1 -0.1)">
       <use xlink:href="#DejaVuSans-8722"/>
       <use x="83.789062" xlink:href="#DejaVuSans-50"/>
      </g>
     </g>
    </g>
    <g id="xtick_4">
     <g id="line2d_4">
      <g>
       <use style="stroke:#000000;stroke-width:0.8;" x="182.629954" xlink:href="#m65e44b91f3" y="228.14"/>
      </g>
     </g>
     <g id="text_4">
      <!-- −1 -->
      <defs>
       <path d="M 12.40625 8.296875 
L 28.515625 8.296875 
L 28.515625 63.921875 
L 10.984375 60.40625 
L 10.984375 69.390625 
L 28.421875 72.90625 
L 38.28125 72.90625 
L 38.28125 8.296875 
L 54.390625 8.296875 
L 54.390625 0 
L 12.40625 0 
z
" id="DejaVuSans-49"/>
      </defs>
      <g transform="translate(175.25886 242.738437)scale(0.1 -0.1)">
       <use xlink:href="#DejaVuSans-8722"/>
       <use x="83.789062" xlink:href="#DejaVuSans-49"/>
      </g>
     </g>
    </g>
    <g id="xtick_5">
     <g id="line2d_5">
      <g>
       <use style="stroke:#000000;stroke-width:0.8;" x="227.498924" xlink:href="#m65e44b91f3" y="228.14"/>
      </g>
     </g>
     <g id="text_5">
      <!-- 0 -->
      <defs>
       <path d="M 31.78125 66.40625 
Q 24.171875 66.40625 20.328125 58.90625 
Q 16.5 51.421875 16.5 36.375 
Q 16.5 21.390625 20.328125 13.890625 
Q 24.171875 6.390625 31.78125 6.390625 
Q 39.453125 6.390625 43.28125 13.890625 
Q 47.125 21.390625 47.125 36.375 
Q 47.125 51.421875 43.28125 58.90625 
Q 39.453125 66.40625 31.78125 66.40625 
z
M 31.78125 74.21875 
Q 44.046875 74.21875 50.515625 64.515625 
Q 56.984375 54.828125 56.984375 36.375 
Q 56.984375 17.96875 50.515625 8.265625 
Q 44.046875 -1.421875 31.78125 -1.421875 
Q 19.53125 -1.421875 13.0625 8.265625 
Q 6.59375 17.96875 6.59375 36.375 
Q 6.59375 54.828125 13.0625 64.515625 
Q 19.53125 74.21875 31.78125 74.21875 
z
" id="DejaVuSans-48"/>
      </defs>
      <g transform="translate(224.317674 242.738437)scale(0.1 -0.1)">
       <use xlink:href="#DejaVuSans-48"/>
      </g>
     </g>
    </g>
    <g id="xtick_6">
     <g id="line2d_6">
      <g>
       <use style="stroke:#000000;stroke-width:0.8;" x="272.367895" xlink:href="#m65e44b91f3" y="228.14"/>
      </g>
     </g>
     <g id="text_6">
      <!-- 1 -->
      <g transform="translate(269.186645 242.738437)scale(0.1 -0.1)">
       <use xlink:href="#DejaVuSans-49"/>
      </g>
     </g>
    </g>
    <g id="xtick_7">
     <g id="line2d_7">
      <g>
       <use style="stroke:#000000;stroke-width:0.8;" x="317.236866" xlink:href="#m65e44b91f3" y="228.14"/>
      </g>
     </g>
     <g id="text_7">
      <!-- 2 -->
      <g transform="translate(314.055616 242.738437)scale(0.1 -0.1)">
       <use xlink:href="#DejaVuSans-50"/>
      </g>
     </g>
    </g>
    <g id="xtick_8">
     <g id="line2d_8">
      <g>
       <use style="stroke:#000000;stroke-width:0.8;" x="362.105836" xlink:href="#m65e44b91f3" y="228.14"/>
      </g>
     </g>
     <g id="text_8">
      <!-- 3 -->
      <g transform="translate(358.924586 242.738437)scale(0.1 -0.1)">
       <use xlink:href="#DejaVuSans-51"/>
      </g>
     </g>
    </g>
   </g>
   <g id="matplotlib.axis_2">
    <g id="ytick_1">
     <g id="line2d_9">
      <defs>
       <path d="M 0 0 
L -3.5 0 
" id="mcb545e9ff3" style="stroke:#000000;stroke-width:0.8;"/>
      </defs>
      <g>
       <use style="stroke:#000000;stroke-width:0.8;" x="30.103125" xlink:href="#mcb545e9ff3" y="228.14"/>
      </g>
     </g>
     <g id="text_9">
      <!-- 0.0 -->
      <defs>
       <path d="M 10.6875 12.40625 
L 21 12.40625 
L 21 0 
L 10.6875 0 
z
" id="DejaVuSans-46"/>
      </defs>
      <g transform="translate(7.2 231.939219)scale(0.1 -0.1)">
       <use xlink:href="#DejaVuSans-48"/>
       <use x="63.623047" xlink:href="#DejaVuSans-46"/>
       <use x="95.410156" xlink:href="#DejaVuSans-48"/>
      </g>
     </g>
    </g>
    <g id="ytick_2">
     <g id="line2d_10">
      <g>
       <use style="stroke:#000000;stroke-width:0.8;" x="30.103125" xlink:href="#mcb545e9ff3" y="184.152046"/>
      </g>
     </g>
     <g id="text_10">
      <!-- 0.1 -->
      <g transform="translate(7.2 187.951265)scale(0.1 -0.1)">
       <use xlink:href="#DejaVuSans-48"/>
       <use x="63.623047" xlink:href="#DejaVuSans-46"/>
       <use x="95.410156" xlink:href="#DejaVuSans-49"/>
      </g>
     </g>
    </g>
    <g id="ytick_3">
     <g id="line2d_11">
      <g>
       <use style="stroke:#000000;stroke-width:0.8;" x="30.103125" xlink:href="#mcb545e9ff3" y="140.164092"/>
      </g>
     </g>
     <g id="text_11">
      <!-- 0.2 -->
      <g transform="translate(7.2 143.96331)scale(0.1 -0.1)">
       <use xlink:href="#DejaVuSans-48"/>
       <use x="63.623047" xlink:href="#DejaVuSans-46"/>
       <use x="95.410156" xlink:href="#DejaVuSans-50"/>
      </g>
     </g>
    </g>
    <g id="ytick_4">
     <g id="line2d_12">
      <g>
       <use style="stroke:#000000;stroke-width:0.8;" x="30.103125" xlink:href="#mcb545e9ff3" y="96.176138"/>
      </g>
     </g>
     <g id="text_12">
      <!-- 0.3 -->
      <g transform="translate(7.2 99.975356)scale(0.1 -0.1)">
       <use xlink:href="#DejaVuSans-48"/>
       <use x="63.623047" xlink:href="#DejaVuSans-46"/>
       <use x="95.410156" xlink:href="#DejaVuSans-51"/>
      </g>
     </g>
    </g>
    <g id="ytick_5">
     <g id="line2d_13">
      <g>
       <use style="stroke:#000000;stroke-width:0.8;" x="30.103125" xlink:href="#mcb545e9ff3" y="52.188183"/>
      </g>
     </g>
     <g id="text_13">
      <!-- 0.4 -->
      <g transform="translate(7.2 55.987402)scale(0.1 -0.1)">
       <use xlink:href="#DejaVuSans-48"/>
       <use x="63.623047" xlink:href="#DejaVuSans-46"/>
       <use x="95.410156" xlink:href="#DejaVuSans-52"/>
      </g>
     </g>
    </g>
   </g>
   <g id="line2d_14">
    <path clip-path="url(#pfec11bce55)" d="M 45.321307 228.122492 
L 57.304127 228.073604 
L 69.286947 228.003051 
L 78.873204 227.98896 
L 102.838844 227.408199 
L 107.631973 227.024429 
L 110.028537 226.677118 
L 112.425101 226.165989 
L 114.821665 225.431818 
L 117.218229 224.403765 
L 119.614793 222.999211 
L 122.011357 221.125951 
L 124.407921 218.69084 
L 126.804485 215.618237 
L 129.201049 211.87747 
L 131.597613 207.512478 
L 133.994177 202.660327 
L 141.183869 187.509826 
L 143.580434 182.94972 
L 145.976998 178.76227 
L 148.373562 174.926101 
L 150.770126 171.450956 
L 153.16669 168.400232 
L 155.563254 165.811642 
L 160.356382 161.245676 
L 162.752946 158.311358 
L 165.14951 154.233567 
L 167.546074 148.826851 
L 174.735766 129.503787 
L 177.13233 124.596854 
L 179.528895 121.188633 
L 181.925459 119.039539 
L 189.115151 114.687424 
L 191.511715 112.752925 
L 193.908279 110.472095 
L 196.304843 107.772435 
L 198.701407 104.429383 
L 201.097971 100.180381 
L 203.494535 94.912121 
L 205.891099 88.757342 
L 213.080791 68.505867 
L 215.477355 62.556939 
L 217.87392 57.820007 
L 220.270484 54.746503 
L 222.667048 53.529791 
L 225.063612 54.017578 
L 227.460176 55.842179 
L 229.85674 58.656972 
L 232.253304 62.242514 
L 237.046432 70.634292 
L 239.442996 74.364358 
L 241.83956 76.977745 
L 244.236124 78.320766 
L 249.029252 79.40791 
L 251.425816 80.837754 
L 253.822381 83.545359 
L 256.218945 87.426471 
L 258.615509 92.068121 
L 263.408637 102.352587 
L 265.805201 107.99773 
L 268.201765 114.180869 
L 272.994893 127.535115 
L 275.391457 133.617822 
L 277.788021 138.437382 
L 280.184585 141.665911 
L 282.581149 143.455182 
L 287.374277 145.333556 
L 289.770842 147.029214 
L 292.167406 149.955721 
L 294.56397 154.149846 
L 296.960534 159.265657 
L 301.753662 170.105673 
L 304.150226 174.966731 
L 306.54679 179.227108 
L 308.943354 182.956235 
L 313.736482 189.556942 
L 316.133046 192.831197 
L 318.52961 196.294711 
L 320.926174 200.023289 
L 325.719303 208.21067 
L 330.512431 216.462792 
L 332.908995 220.032221 
L 335.305559 222.9335 
L 337.702123 225.073006 
L 340.098687 226.493702 
L 342.495251 227.338946 
L 344.891815 227.788063 
L 347.288379 228.000686 
L 349.684943 228.089995 
L 349.684943 228.089995 
" style="fill:none;stroke:#1f77b4;stroke-linecap:square;stroke-width:1.5;"/>
   </g>
   <g id="line2d_15">
    <path clip-path="url(#pfec11bce55)" d="M 46.470868 228.088769 
L 64.685814 227.897301 
L 75.311199 227.582715 
L 82.900759 227.164942 
L 88.972408 226.645672 
L 95.044056 225.891416 
L 99.597793 225.121524 
L 104.151529 224.129552 
L 108.705266 222.866186 
L 111.74109 221.845988 
L 114.776914 220.662745 
L 117.812738 219.297629 
L 120.848563 217.731046 
L 123.884387 215.942878 
L 126.920211 213.912799 
L 129.956035 211.620631 
L 132.99186 209.046775 
L 136.027684 206.172683 
L 139.063508 202.981392 
L 142.099332 199.458091 
L 145.135157 195.590721 
L 148.170981 191.370598 
L 151.206805 186.793037 
L 154.242629 181.857955 
L 157.278454 176.570452 
L 160.314278 170.941323 
L 164.868014 161.895898 
L 169.421751 152.206196 
L 173.975487 141.991088 
L 180.047136 127.822311 
L 190.67252 102.835908 
L 195.226257 92.650856 
L 199.779993 83.139183 
L 202.815817 77.295581 
L 205.851642 71.933207 
L 208.887466 67.119026 
L 211.92329 62.914585 
L 214.959114 59.374714 
L 216.477027 57.868993 
L 217.994939 56.546332 
L 219.512851 55.411192 
L 221.030763 54.467418 
L 222.548675 53.71822 
L 224.066587 53.166156 
L 225.584499 52.813114 
L 227.102411 52.660305 
L 228.620324 52.708252 
L 230.138236 52.956791 
L 231.656148 53.40507 
L 233.17406 54.051553 
L 234.691972 54.894031 
L 236.209884 55.929633 
L 237.727796 57.154842 
L 239.245708 58.565518 
L 240.763621 60.156914 
L 243.799445 63.860049 
L 246.835269 68.215338 
L 249.871093 73.166235 
L 252.906918 78.649775 
L 255.942742 84.597907 
L 258.978566 90.938891 
L 263.532303 101.024827 
L 269.603951 115.153829 
L 281.747248 143.646463 
L 286.300984 153.787295 
L 290.854721 163.381504 
L 295.408457 172.315681 
L 298.444281 177.86454 
L 301.480106 183.068652 
L 304.51593 187.918626 
L 307.551754 192.410649 
L 310.587578 196.545956 
L 313.623403 200.330244 
L 316.659227 203.773059 
L 319.695051 206.887173 
L 322.730875 209.687965 
L 325.7667 212.192828 
L 328.802524 214.420604 
L 331.838348 216.391075 
L 334.874173 218.124487 
L 337.909997 219.641152 
L 340.945821 220.961084 
L 343.981645 222.103719 
L 348.535382 223.52568 
L 348.535382 223.52568 
" style="fill:none;stroke:#282828;stroke-linecap:square;stroke-width:1.5;"/>
   </g>
   <g id="patch_53">
    <path d="M 30.103125 228.14 
L 30.103125 10.7 
" style="fill:none;stroke:#000000;stroke-linecap:square;stroke-linejoin:miter;stroke-width:0.8;"/>
   </g>
   <g id="patch_54">
    <path d="M 364.903125 228.14 
L 364.903125 10.7 
" style="fill:none;stroke:#000000;stroke-linecap:square;stroke-linejoin:miter;stroke-width:0.8;"/>
   </g>
   <g id="patch_55">
    <path d="M 30.103125 228.14 
L 364.903125 228.14 
" style="fill:none;stroke:#000000;stroke-linecap:square;stroke-linejoin:miter;stroke-width:0.8;"/>
   </g>
   <g id="patch_56">
    <path d="M 30.103125 10.7 
L 364.903125 10.7 
" style="fill:none;stroke:#000000;stroke-linecap:square;stroke-linejoin:miter;stroke-width:0.8;"/>
   </g>
  </g>
 </g>
 <defs>
  <clipPath id="pfec11bce55">
   <rect height="217.44" width="334.8" x="30.103125" y="10.7"/>
  </clipPath>
 </defs>
</svg>
