<?xml version="1.0" encoding="utf-8" standalone="no"?>
<!DOCTYPE svg PUBLIC "-//W3C//DTD SVG 1.1//EN"
  "http://www.w3.org/Graphics/SVG/1.1/DTD/svg11.dtd">
<!-- Created with matplotlib (https://matplotlib.org/) -->
<svg height="579.14625pt" version="1.1" viewBox="0 0 568.4 579.14625" width="568.4pt" xmlns="http://www.w3.org/2000/svg" xmlns:xlink="http://www.w3.org/1999/xlink">
 <defs>
  <style type="text/css">
*{stroke-linecap:butt;stroke-linejoin:round;}
  </style>
 </defs>
 <g id="figure_1">
  <g id="patch_1">
   <path d="M 0 579.14625 
L 568.4 579.14625 
L 568.4 0 
L 0 0 
z
" style="fill:none;"/>
  </g>
  <g id="axes_1">
   <g id="patch_2">
    <path d="M 66.33125 541.311875 
L 557.7 541.311875 
L 557.7 22.318125 
L 66.33125 22.318125 
z
" style="fill:#ffffff;"/>
   </g>
   <g id="PolyCollection_1">
    <defs>
     <path d="M 115.508606 -101.772351 
L 115.427644 -101.772351 
L 115.401153 -105.879341 
L 115.360865 -109.986332 
L 115.301341 -114.093322 
L 115.215591 -118.200312 
L 115.094742 -122.307303 
L 114.927741 -126.414293 
L 114.701212 -130.521284 
L 114.39972 -134.628274 
L 114.006675 -138.735264 
L 113.506076 -142.842255 
L 112.885068 -146.949245 
L 112.136981 -151.056236 
L 111.264155 -155.163226 
L 110.279595 -159.270216 
L 109.206475 -163.377207 
L 108.074873 -167.484197 
L 106.915851 -171.591188 
L 105.753983 -175.698178 
L 104.600326 -179.805168 
L 103.448233 -183.912159 
L 102.274027 -188.019149 
L 101.043264 -192.12614 
L 99.72153 -196.23313 
L 98.287027 -200.34012 
L 96.741323 -204.447111 
L 95.115021 -208.554101 
L 93.466635 -212.661092 
L 91.87497 -216.768082 
L 90.427109 -220.875072 
L 89.204914 -224.982063 
L 88.27277 -229.089053 
L 87.668515 -233.196044 
L 87.398582 -237.303034 
L 87.43786 -241.410024 
L 87.734412 -245.517015 
L 88.218721 -249.624005 
L 88.816286 -253.730996 
L 89.461268 -257.837986 
L 90.108074 -261.944976 
L 90.737911 -266.051967 
L 91.358587 -270.158957 
L 91.99791 -274.265948 
L 92.692951 -278.372938 
L 93.478468 -282.479928 
L 94.377526 -286.586919 
L 95.396084 -290.693909 
L 96.52178 -294.8009 
L 97.726049 -298.90789 
L 98.968279 -303.01488 
L 100.20098 -307.121871 
L 101.375335 -311.228861 
L 102.446829 -315.335852 
L 103.380625 -319.442842 
L 104.156174 -323.549833 
L 104.770369 -327.656823 
L 105.238478 -331.763813 
L 105.592362 -335.870804 
L 105.875848 -339.977794 
L 106.137783 -344.084785 
L 106.423864 -348.191775 
L 106.768855 -352.298765 
L 107.190946 -356.405756 
L 107.68963 -360.512746 
L 108.247671 -364.619737 
L 108.836569 -368.726727 
L 109.423988 -372.833717 
L 109.98104 -376.940708 
L 110.487562 -381.047698 
L 110.934275 -385.154689 
L 111.321817 -389.261679 
L 111.657542 -393.368669 
L 111.951487 -397.47566 
L 112.212794 -401.58265 
L 112.447486 -405.689641 
L 112.657847 -409.796631 
L 112.843207 -413.903621 
L 113.00159 -418.010612 
L 113.131644 -422.117602 
L 113.234266 -426.224593 
L 113.313534 -430.331583 
L 113.37672 -434.438573 
L 113.433403 -438.545564 
L 113.493938 -442.652554 
L 113.567693 -446.759545 
L 113.6615 -450.866535 
L 113.778696 -454.973525 
L 113.918887 -459.080516 
L 114.078384 -463.187506 
L 114.251079 -467.294497 
L 114.429513 -471.401487 
L 114.605911 -475.508477 
L 114.773069 -479.615468 
L 114.925041 -483.722458 
L 115.057601 -487.829449 
L 115.168475 -491.936439 
L 115.257308 -496.043429 
L 115.325411 -500.15042 
L 115.375311 -504.25741 
L 115.410216 -508.364401 
L 115.526034 -508.364401 
L 115.526034 -508.364401 
L 115.560939 -504.25741 
L 115.610839 -500.15042 
L 115.678942 -496.043429 
L 115.767775 -491.936439 
L 115.878649 -487.829449 
L 116.011209 -483.722458 
L 116.163181 -479.615468 
L 116.330339 -475.508477 
L 116.506737 -471.401487 
L 116.685171 -467.294497 
L 116.857866 -463.187506 
L 117.017363 -459.080516 
L 117.157554 -454.973525 
L 117.27475 -450.866535 
L 117.368557 -446.759545 
L 117.442312 -442.652554 
L 117.502847 -438.545564 
L 117.55953 -434.438573 
L 117.622716 -430.331583 
L 117.701984 -426.224593 
L 117.804606 -422.117602 
L 117.93466 -418.010612 
L 118.093043 -413.903621 
L 118.278403 -409.796631 
L 118.488764 -405.689641 
L 118.723456 -401.58265 
L 118.984763 -397.47566 
L 119.278708 -393.368669 
L 119.614433 -389.261679 
L 120.001975 -385.154689 
L 120.448688 -381.047698 
L 120.95521 -376.940708 
L 121.512262 -372.833717 
L 122.099681 -368.726727 
L 122.688579 -364.619737 
L 123.24662 -360.512746 
L 123.745304 -356.405756 
L 124.167395 -352.298765 
L 124.512386 -348.191775 
L 124.798467 -344.084785 
L 125.060402 -339.977794 
L 125.343888 -335.870804 
L 125.697772 -331.763813 
L 126.165881 -327.656823 
L 126.780076 -323.549833 
L 127.555625 -319.442842 
L 128.489421 -315.335852 
L 129.560915 -311.228861 
L 130.73527 -307.121871 
L 131.967971 -303.01488 
L 133.210201 -298.90789 
L 134.41447 -294.8009 
L 135.540166 -290.693909 
L 136.558724 -286.586919 
L 137.457782 -282.479928 
L 138.243299 -278.372938 
L 138.93834 -274.265948 
L 139.577663 -270.158957 
L 140.198339 -266.051967 
L 140.828176 -261.944976 
L 141.474982 -257.837986 
L 142.119964 -253.730996 
L 142.717529 -249.624005 
L 143.201838 -245.517015 
L 143.49839 -241.410024 
L 143.537668 -237.303034 
L 143.267735 -233.196044 
L 142.66348 -229.089053 
L 141.731336 -224.982063 
L 140.509141 -220.875072 
L 139.06128 -216.768082 
L 137.469615 -212.661092 
L 135.821229 -208.554101 
L 134.194927 -204.447111 
L 132.649223 -200.34012 
L 131.21472 -196.23313 
L 129.892986 -192.12614 
L 128.662223 -188.019149 
L 127.488017 -183.912159 
L 126.335924 -179.805168 
L 125.182267 -175.698178 
L 124.020399 -171.591188 
L 122.861377 -167.484197 
L 121.729775 -163.377207 
L 120.656655 -159.270216 
L 119.672095 -155.163226 
L 118.799269 -151.056236 
L 118.051182 -146.949245 
L 117.430174 -142.842255 
L 116.929575 -138.735264 
L 116.53653 -134.628274 
L 116.235038 -130.521284 
L 116.008509 -126.414293 
L 115.841508 -122.307303 
L 115.720659 -118.200312 
L 115.634909 -114.093322 
L 115.575385 -109.986332 
L 115.535097 -105.879341 
L 115.508606 -101.772351 
z
" id="m53fa2f4166" style="stroke:#3d3d3d;stroke-width:1.5;"/>
    </defs>
    <g clip-path="url(#pec12fc4a66)">
     <use style="fill:#3274a1;stroke:#3d3d3d;stroke-width:1.5;" x="0" xlink:href="#m53fa2f4166" y="579.14625"/>
    </g>
   </g>
   <g id="PolyCollection_2">
    <defs>
     <path d="M 213.836282 -90.198389 
L 213.647468 -90.198389 
L 213.567737 -93.91842 
L 213.429523 -97.63845 
L 213.197109 -101.35848 
L 212.818858 -105.07851 
L 212.224796 -108.798541 
L 211.327319 -112.518571 
L 210.027291 -116.238601 
L 208.227243 -119.958631 
L 205.851691 -123.678662 
L 202.871777 -127.398692 
L 199.328417 -131.118722 
L 195.346207 -134.838752 
L 191.130925 -138.558782 
L 186.947191 -142.278813 
L 183.078864 -145.998843 
L 179.781009 -149.718873 
L 177.236021 -153.438903 
L 175.525911 -157.158934 
L 174.627817 -160.878964 
L 174.432375 -164.598994 
L 174.777767 -168.319024 
L 175.488604 -172.039055 
L 176.409331 -175.759085 
L 177.42564 -179.479115 
L 178.47228 -183.199145 
L 179.529486 -186.919176 
L 180.612019 -190.639206 
L 181.754632 -194.359236 
L 182.996806 -198.079266 
L 184.368861 -201.799296 
L 185.881285 -205.519327 
L 187.519084 -209.239357 
L 189.242387 -212.959387 
L 190.993236 -216.679417 
L 192.706783 -220.399448 
L 194.32377 -224.119478 
L 195.800886 -227.839508 
L 197.116484 -231.559538 
L 198.270891 -235.279569 
L 199.282196 -238.999599 
L 200.179535 -242.719629 
L 200.996068 -246.439659 
L 201.763285 -250.159689 
L 202.507393 -253.87972 
L 203.247642 -257.59975 
L 203.995927 -261.31978 
L 204.756887 -265.03981 
L 205.52804 -268.759841 
L 206.299938 -272.479871 
L 207.056786 -276.199901 
L 207.778043 -279.919931 
L 208.441258 -283.639962 
L 209.025863 -287.359992 
L 209.517079 -291.080022 
L 209.908923 -294.800052 
L 210.205481 -298.520082 
L 210.420205 -302.240113 
L 210.573591 -305.960143 
L 210.689982 -309.680173 
L 210.794255 -313.400203 
L 210.908874 -317.120234 
L 211.051487 -320.840264 
L 211.233093 -324.560294 
L 211.456869 -328.280324 
L 211.717885 -332.000355 
L 212.003937 -335.720385 
L 212.297549 -339.440415 
L 212.57883 -343.160445 
L 212.828568 -346.880475 
L 213.030873 -350.600506 
L 213.174863 -354.320536 
L 213.255284 -358.040566 
L 213.272317 -361.760596 
L 213.230965 -365.480627 
L 213.140371 -369.200657 
L 213.013168 -372.920687 
L 212.864727 -376.640717 
L 212.712088 -380.360748 
L 212.572413 -384.080778 
L 212.461049 -387.800808 
L 212.38954 -391.520838 
L 212.364057 -395.240869 
L 212.384721 -398.960899 
L 212.44607 -402.680929 
L 212.538599 -406.400959 
L 212.650988 -410.120989 
L 212.772399 -413.84102 
L 212.894242 -417.56105 
L 213.010997 -421.28108 
L 213.120022 -425.00111 
L 213.220651 -428.721141 
L 213.313037 -432.441171 
L 213.397233 -436.161201 
L 213.472772 -439.881231 
L 213.538781 -443.601262 
L 213.594395 -447.321292 
L 213.639217 -451.041322 
L 213.673579 -454.761352 
L 213.698548 -458.481382 
L 213.785202 -458.481382 
L 213.785202 -458.481382 
L 213.810171 -454.761352 
L 213.844533 -451.041322 
L 213.889355 -447.321292 
L 213.944969 -443.601262 
L 214.010978 -439.881231 
L 214.086517 -436.161201 
L 214.170713 -432.441171 
L 214.263099 -428.721141 
L 214.363728 -425.00111 
L 214.472753 -421.28108 
L 214.589508 -417.56105 
L 214.711351 -413.84102 
L 214.832762 -410.120989 
L 214.945151 -406.400959 
L 215.03768 -402.680929 
L 215.099029 -398.960899 
L 215.119693 -395.240869 
L 215.09421 -391.520838 
L 215.022701 -387.800808 
L 214.911337 -384.080778 
L 214.771662 -380.360748 
L 214.619023 -376.640717 
L 214.470582 -372.920687 
L 214.343379 -369.200657 
L 214.252785 -365.480627 
L 214.211433 -361.760596 
L 214.228466 -358.040566 
L 214.308887 -354.320536 
L 214.452877 -350.600506 
L 214.655182 -346.880475 
L 214.90492 -343.160445 
L 215.186201 -339.440415 
L 215.479813 -335.720385 
L 215.765865 -332.000355 
L 216.026881 -328.280324 
L 216.250657 -324.560294 
L 216.432263 -320.840264 
L 216.574876 -317.120234 
L 216.689495 -313.400203 
L 216.793768 -309.680173 
L 216.910159 -305.960143 
L 217.063545 -302.240113 
L 217.278269 -298.520082 
L 217.574827 -294.800052 
L 217.966671 -291.080022 
L 218.457887 -287.359992 
L 219.042492 -283.639962 
L 219.705707 -279.919931 
L 220.426964 -276.199901 
L 221.183812 -272.479871 
L 221.95571 -268.759841 
L 222.726863 -265.03981 
L 223.487823 -261.31978 
L 224.236108 -257.59975 
L 224.976357 -253.87972 
L 225.720465 -250.159689 
L 226.487682 -246.439659 
L 227.304215 -242.719629 
L 228.201554 -238.999599 
L 229.212859 -235.279569 
L 230.367266 -231.559538 
L 231.682864 -227.839508 
L 233.15998 -224.119478 
L 234.776967 -220.399448 
L 236.490514 -216.679417 
L 238.241363 -212.959387 
L 239.964666 -209.239357 
L 241.602465 -205.519327 
L 243.114889 -201.799296 
L 244.486944 -198.079266 
L 245.729118 -194.359236 
L 246.871731 -190.639206 
L 247.954264 -186.919176 
L 249.01147 -183.199145 
L 250.05811 -179.479115 
L 251.074419 -175.759085 
L 251.995146 -172.039055 
L 252.705983 -168.319024 
L 253.051375 -164.598994 
L 252.855933 -160.878964 
L 251.957839 -157.158934 
L 250.247729 -153.438903 
L 247.702741 -149.718873 
L 244.404886 -145.998843 
L 240.536559 -142.278813 
L 236.352825 -138.558782 
L 232.137543 -134.838752 
L 228.155333 -131.118722 
L 224.611973 -127.398692 
L 221.632059 -123.678662 
L 219.256507 -119.958631 
L 217.456459 -116.238601 
L 216.156431 -112.518571 
L 215.258954 -108.798541 
L 214.664892 -105.07851 
L 214.286641 -101.35848 
L 214.054227 -97.63845 
L 213.916013 -93.91842 
L 213.836282 -90.198389 
z
" id="m4238770594" style="stroke:#3d3d3d;stroke-width:1.5;"/>
    </defs>
    <g clip-path="url(#pec12fc4a66)">
     <use style="fill:#e1812c;stroke:#3d3d3d;stroke-width:1.5;" x="0" xlink:href="#m4238770594" y="579.14625"/>
    </g>
   </g>
   <g id="PolyCollection_3">
    <defs>
     <path d="M 312.0946 -61.425 
L 311.93665 -61.425 
L 311.905258 -66.190783 
L 311.864007 -70.956566 
L 311.810591 -75.722348 
L 311.742272 -80.488131 
L 311.655767 -85.253914 
L 311.547097 -90.019697 
L 311.411428 -94.78548 
L 311.24293 -99.551263 
L 311.034691 -104.317045 
L 310.778765 -109.082828 
L 310.466386 -113.848611 
L 310.088397 -118.614394 
L 309.635908 -123.380177 
L 309.101148 -128.14596 
L 308.478418 -132.911742 
L 307.765055 -137.677525 
L 306.962232 -142.443308 
L 306.075477 -147.209091 
L 305.11478 -151.974874 
L 304.094256 -156.740657 
L 303.031372 -161.506439 
L 301.945841 -166.272222 
L 300.85835 -171.038005 
L 299.789287 -175.803788 
L 298.757676 -180.569571 
L 297.780426 -185.335354 
L 296.871955 -190.101136 
L 296.044183 -194.866919 
L 295.306756 -199.632702 
L 294.667398 -204.398485 
L 294.132197 -209.164268 
L 293.705734 -213.930051 
L 293.390977 -218.695833 
L 293.188965 -223.461616 
L 293.098372 -228.227399 
L 293.115075 -232.993182 
L 293.231898 -237.758965 
L 293.438628 -242.524747 
L 293.722393 -247.29053 
L 294.068374 -252.056313 
L 294.46077 -256.822096 
L 294.883876 -261.587879 
L 295.323098 -266.353662 
L 295.765745 -271.119444 
L 296.201488 -275.885227 
L 296.622437 -280.65101 
L 297.022881 -285.416793 
L 297.398775 -290.182576 
L 297.747159 -294.948359 
L 298.065637 -299.714141 
L 298.352086 -304.479924 
L 298.604658 -309.245707 
L 298.822085 -314.01149 
L 299.00423 -318.777273 
L 299.152729 -323.543056 
L 299.271581 -328.308838 
L 299.367515 -333.074621 
L 299.450027 -337.840404 
L 299.531019 -342.606187 
L 299.624083 -347.37197 
L 299.743495 -352.137753 
L 299.903067 -356.903535 
L 300.115002 -361.669318 
L 300.388875 -366.435101 
L 300.730856 -371.200884 
L 301.143227 -375.966667 
L 301.62421 -380.732449 
L 302.168102 -385.498232 
L 302.765677 -390.264015 
L 303.404822 -395.029798 
L 304.071345 -399.795581 
L 304.749919 -404.561364 
L 305.425086 -409.327146 
L 306.082245 -414.092929 
L 306.708572 -418.858712 
L 307.293751 -423.624495 
L 307.830485 -428.390278 
L 308.314717 -433.156061 
L 308.745559 -437.921843 
L 309.124929 -442.687626 
L 309.456986 -447.453409 
L 309.747401 -452.219192 
L 310.002595 -456.984975 
L 310.229009 -461.750758 
L 310.4325 -466.51654 
L 310.617912 -471.282323 
L 310.788844 -476.048106 
L 310.947611 -480.813889 
L 311.095375 -485.579672 
L 311.232388 -490.345455 
L 311.358307 -495.111237 
L 311.472508 -499.87702 
L 311.574377 -504.642803 
L 311.663522 -509.408586 
L 311.739914 -514.174369 
L 311.803935 -518.940152 
L 311.856359 -523.705934 
L 311.898274 -528.471717 
L 311.930982 -533.2375 
L 312.100268 -533.2375 
L 312.100268 -533.2375 
L 312.132976 -528.471717 
L 312.174891 -523.705934 
L 312.227315 -518.940152 
L 312.291336 -514.174369 
L 312.367728 -509.408586 
L 312.456873 -504.642803 
L 312.558742 -499.87702 
L 312.672943 -495.111237 
L 312.798862 -490.345455 
L 312.935875 -485.579672 
L 313.083639 -480.813889 
L 313.242406 -476.048106 
L 313.413338 -471.282323 
L 313.59875 -466.51654 
L 313.802241 -461.750758 
L 314.028655 -456.984975 
L 314.283849 -452.219192 
L 314.574264 -447.453409 
L 314.906321 -442.687626 
L 315.285691 -437.921843 
L 315.716533 -433.156061 
L 316.200765 -428.390278 
L 316.737499 -423.624495 
L 317.322678 -418.858712 
L 317.949005 -414.092929 
L 318.606164 -409.327146 
L 319.281331 -404.561364 
L 319.959905 -399.795581 
L 320.626428 -395.029798 
L 321.265573 -390.264015 
L 321.863148 -385.498232 
L 322.40704 -380.732449 
L 322.888023 -375.966667 
L 323.300394 -371.200884 
L 323.642375 -366.435101 
L 323.916248 -361.669318 
L 324.128183 -356.903535 
L 324.287755 -352.137753 
L 324.407167 -347.37197 
L 324.500231 -342.606187 
L 324.581223 -337.840404 
L 324.663735 -333.074621 
L 324.759669 -328.308838 
L 324.878521 -323.543056 
L 325.02702 -318.777273 
L 325.209165 -314.01149 
L 325.426592 -309.245707 
L 325.679164 -304.479924 
L 325.965613 -299.714141 
L 326.284091 -294.948359 
L 326.632475 -290.182576 
L 327.008369 -285.416793 
L 327.408813 -280.65101 
L 327.829762 -275.885227 
L 328.265505 -271.119444 
L 328.708152 -266.353662 
L 329.147374 -261.587879 
L 329.57048 -256.822096 
L 329.962876 -252.056313 
L 330.308857 -247.29053 
L 330.592622 -242.524747 
L 330.799352 -237.758965 
L 330.916175 -232.993182 
L 330.932878 -228.227399 
L 330.842285 -223.461616 
L 330.640273 -218.695833 
L 330.325516 -213.930051 
L 329.899053 -209.164268 
L 329.363852 -204.398485 
L 328.724494 -199.632702 
L 327.987067 -194.866919 
L 327.159295 -190.101136 
L 326.250824 -185.335354 
L 325.273574 -180.569571 
L 324.241963 -175.803788 
L 323.1729 -171.038005 
L 322.085409 -166.272222 
L 320.999878 -161.506439 
L 319.936994 -156.740657 
L 318.91647 -151.974874 
L 317.955773 -147.209091 
L 317.069018 -142.443308 
L 316.266195 -137.677525 
L 315.552832 -132.911742 
L 314.930102 -128.14596 
L 314.395342 -123.380177 
L 313.942853 -118.614394 
L 313.564864 -113.848611 
L 313.252485 -109.082828 
L 312.996559 -104.317045 
L 312.78832 -99.551263 
L 312.619822 -94.78548 
L 312.484153 -90.019697 
L 312.375483 -85.253914 
L 312.288978 -80.488131 
L 312.220659 -75.722348 
L 312.167243 -70.956566 
L 312.125992 -66.190783 
L 312.0946 -61.425 
z
" id="m9d9cf816f0" style="stroke:#3d3d3d;stroke-width:1.5;"/>
    </defs>
    <g clip-path="url(#pec12fc4a66)">
     <use style="fill:#3a923a;stroke:#3d3d3d;stroke-width:1.5;" x="0" xlink:href="#m9d9cf816f0" y="579.14625"/>
    </g>
   </g>
   <g id="PolyCollection_4">
    <defs>
     <path d="M 410.473392 -92.816472 
L 410.105358 -92.816472 
L 410.020498 -97.225878 
L 409.903963 -101.635284 
L 409.747287 -106.04469 
L 409.54104 -110.454096 
L 409.275173 -114.863502 
L 408.939516 -119.272908 
L 408.524406 -123.682314 
L 408.021407 -128.09172 
L 407.424064 -132.501126 
L 406.728609 -136.910532 
L 405.934537 -141.319938 
L 405.045006 -145.729343 
L 404.066994 -150.138749 
L 403.011227 -154.548155 
L 401.891886 -158.957561 
L 400.726146 -163.366967 
L 399.533605 -167.776373 
L 398.335658 -172.185779 
L 397.15483 -176.595185 
L 396.014085 -181.004591 
L 394.936069 -185.413997 
L 393.94227 -189.823403 
L 393.052048 -194.232809 
L 392.281569 -198.642215 
L 391.64269 -203.051621 
L 391.141922 -207.461026 
L 390.779617 -211.870432 
L 390.549563 -216.279838 
L 390.439123 -220.689244 
L 390.430023 -225.09865 
L 390.499783 -229.508056 
L 390.623709 -233.917462 
L 390.777235 -238.326868 
L 390.938367 -242.736274 
L 391.089924 -247.14568 
L 391.221271 -251.555086 
L 391.329315 -255.964492 
L 391.418619 -260.373898 
L 391.50059 -264.783304 
L 391.591844 -269.192709 
L 391.711946 -273.602115 
L 391.880806 -278.011521 
L 392.116071 -282.420927 
L 392.430825 -286.830333 
L 392.831884 -291.239739 
L 393.318885 -295.649145 
L 393.884243 -300.058551 
L 394.513973 -304.467957 
L 395.189228 -308.877363 
L 395.88834 -313.286769 
L 396.589094 -317.696175 
L 397.270946 -322.105581 
L 397.916914 -326.514987 
L 398.514938 -330.924392 
L 399.058575 -335.333798 
L 399.546996 -339.743204 
L 399.984359 -344.15261 
L 400.378695 -348.562016 
L 400.740497 -352.971422 
L 401.081248 -357.380828 
L 401.412066 -361.790234 
L 401.742634 -366.19964 
L 402.080483 -370.609046 
L 402.430648 -375.018452 
L 402.795646 -379.427858 
L 403.175673 -383.837264 
L 403.568935 -388.24667 
L 403.972006 -392.656076 
L 404.380171 -397.065481 
L 404.787728 -401.474887 
L 405.188279 -405.884293 
L 405.575049 -410.293699 
L 405.941255 -414.703105 
L 406.280577 -419.112511 
L 406.587681 -423.521917 
L 406.858772 -427.931323 
L 407.092084 -432.340729 
L 407.288223 -436.750135 
L 407.450286 -441.159541 
L 407.583691 -445.568947 
L 407.695727 -449.978353 
L 407.794842 -454.387759 
L 407.889774 -458.797164 
L 407.988628 -463.20657 
L 408.098026 -467.615976 
L 408.222459 -472.025382 
L 408.363918 -476.434788 
L 408.521848 -480.844194 
L 408.693411 -485.2536 
L 408.874013 -489.663006 
L 409.057986 -494.072412 
L 409.239322 -498.481818 
L 409.412364 -502.891224 
L 409.572351 -507.30063 
L 409.715779 -511.710036 
L 409.840557 -516.119442 
L 409.945971 -520.528847 
L 410.032505 -524.938253 
L 410.101566 -529.347659 
L 410.477184 -529.347659 
L 410.477184 -529.347659 
L 410.546245 -524.938253 
L 410.632779 -520.528847 
L 410.738193 -516.119442 
L 410.862971 -511.710036 
L 411.006399 -507.30063 
L 411.166386 -502.891224 
L 411.339428 -498.481818 
L 411.520764 -494.072412 
L 411.704737 -489.663006 
L 411.885339 -485.2536 
L 412.056902 -480.844194 
L 412.214832 -476.434788 
L 412.356291 -472.025382 
L 412.480724 -467.615976 
L 412.590122 -463.20657 
L 412.688976 -458.797164 
L 412.783908 -454.387759 
L 412.883023 -449.978353 
L 412.995059 -445.568947 
L 413.128464 -441.159541 
L 413.290527 -436.750135 
L 413.486666 -432.340729 
L 413.719978 -427.931323 
L 413.991069 -423.521917 
L 414.298173 -419.112511 
L 414.637495 -414.703105 
L 415.003701 -410.293699 
L 415.390471 -405.884293 
L 415.791022 -401.474887 
L 416.198579 -397.065481 
L 416.606744 -392.656076 
L 417.009815 -388.24667 
L 417.403077 -383.837264 
L 417.783104 -379.427858 
L 418.148102 -375.018452 
L 418.498267 -370.609046 
L 418.836116 -366.19964 
L 419.166684 -361.790234 
L 419.497502 -357.380828 
L 419.838253 -352.971422 
L 420.200055 -348.562016 
L 420.594391 -344.15261 
L 421.031754 -339.743204 
L 421.520175 -335.333798 
L 422.063812 -330.924392 
L 422.661836 -326.514987 
L 423.307804 -322.105581 
L 423.989656 -317.696175 
L 424.69041 -313.286769 
L 425.389522 -308.877363 
L 426.064777 -304.467957 
L 426.694507 -300.058551 
L 427.259865 -295.649145 
L 427.746866 -291.239739 
L 428.147925 -286.830333 
L 428.462679 -282.420927 
L 428.697944 -278.011521 
L 428.866804 -273.602115 
L 428.986906 -269.192709 
L 429.07816 -264.783304 
L 429.160131 -260.373898 
L 429.249435 -255.964492 
L 429.357479 -251.555086 
L 429.488826 -247.14568 
L 429.640383 -242.736274 
L 429.801515 -238.326868 
L 429.955041 -233.917462 
L 430.078967 -229.508056 
L 430.148727 -225.09865 
L 430.139627 -220.689244 
L 430.029187 -216.279838 
L 429.799133 -211.870432 
L 429.436828 -207.461026 
L 428.93606 -203.051621 
L 428.297181 -198.642215 
L 427.526702 -194.232809 
L 426.63648 -189.823403 
L 425.642681 -185.413997 
L 424.564665 -181.004591 
L 423.42392 -176.595185 
L 422.243092 -172.185779 
L 421.045145 -167.776373 
L 419.852604 -163.366967 
L 418.686864 -158.957561 
L 417.567523 -154.548155 
L 416.511756 -150.138749 
L 415.533744 -145.729343 
L 414.644213 -141.319938 
L 413.850141 -136.910532 
L 413.154686 -132.501126 
L 412.557343 -128.09172 
L 412.054344 -123.682314 
L 411.639234 -119.272908 
L 411.303577 -114.863502 
L 411.03771 -110.454096 
L 410.831463 -106.04469 
L 410.674787 -101.635284 
L 410.558252 -97.225878 
L 410.473392 -92.816472 
z
" id="mb3f24fb7c8" style="stroke:#3d3d3d;stroke-width:1.5;"/>
    </defs>
    <g clip-path="url(#pec12fc4a66)">
     <use style="fill:#c03d3e;stroke:#3d3d3d;stroke-width:1.5;" x="0" xlink:href="#mb3f24fb7c8" y="579.14625"/>
    </g>
   </g>
   <g id="matplotlib.axis_1">
    <g id="xtick_1">
     <g id="line2d_1">
      <defs>
       <path d="M 0 0 
L 0 3.5 
" id="m465c9af37d" style="stroke:#000000;stroke-width:0.8;"/>
      </defs>
      <g>
       <use style="stroke:#000000;stroke-width:0.8;" x="115.468125" xlink:href="#m465c9af37d" y="541.311875"/>
      </g>
     </g>
     <g id="text_1">
      <!-- &lt;1H OCEAN -->
      <defs>
       <path d="M 73.1875 49.21875 
L 22.796875 31.296875 
L 73.1875 13.484375 
L 73.1875 4.59375 
L 10.59375 27.296875 
L 10.59375 35.40625 
L 73.1875 58.109375 
z
" id="DejaVuSans-60"/>
       <path d="M 12.40625 8.296875 
L 28.515625 8.296875 
L 28.515625 63.921875 
L 10.984375 60.40625 
L 10.984375 69.390625 
L 28.421875 72.90625 
L 38.28125 72.90625 
L 38.28125 8.296875 
L 54.390625 8.296875 
L 54.390625 0 
L 12.40625 0 
z
" id="DejaVuSans-49"/>
       <path d="M 9.8125 72.90625 
L 19.671875 72.90625 
L 19.671875 43.015625 
L 55.515625 43.015625 
L 55.515625 72.90625 
L 65.375 72.90625 
L 65.375 0 
L 55.515625 0 
L 55.515625 34.71875 
L 19.671875 34.71875 
L 19.671875 0 
L 9.8125 0 
z
" id="DejaVuSans-72"/>
       <path id="DejaVuSans-32"/>
       <path d="M 39.40625 66.21875 
Q 28.65625 66.21875 22.328125 58.203125 
Q 16.015625 50.203125 16.015625 36.375 
Q 16.015625 22.609375 22.328125 14.59375 
Q 28.65625 6.59375 39.40625 6.59375 
Q 50.140625 6.59375 56.421875 14.59375 
Q 62.703125 22.609375 62.703125 36.375 
Q 62.703125 50.203125 56.421875 58.203125 
Q 50.140625 66.21875 39.40625 66.21875 
z
M 39.40625 74.21875 
Q 54.734375 74.21875 63.90625 63.9375 
Q 73.09375 53.65625 73.09375 36.375 
Q 73.09375 19.140625 63.90625 8.859375 
Q 54.734375 -1.421875 39.40625 -1.421875 
Q 24.03125 -1.421875 14.8125 8.828125 
Q 5.609375 19.09375 5.609375 36.375 
Q 5.609375 53.65625 14.8125 63.9375 
Q 24.03125 74.21875 39.40625 74.21875 
z
" id="DejaVuSans-79"/>
       <path d="M 64.40625 67.28125 
L 64.40625 56.890625 
Q 59.421875 61.53125 53.78125 63.8125 
Q 48.140625 66.109375 41.796875 66.109375 
Q 29.296875 66.109375 22.65625 58.46875 
Q 16.015625 50.828125 16.015625 36.375 
Q 16.015625 21.96875 22.65625 14.328125 
Q 29.296875 6.6875 41.796875 6.6875 
Q 48.140625 6.6875 53.78125 8.984375 
Q 59.421875 11.28125 64.40625 15.921875 
L 64.40625 5.609375 
Q 59.234375 2.09375 53.4375 0.328125 
Q 47.65625 -1.421875 41.21875 -1.421875 
Q 24.65625 -1.421875 15.125 8.703125 
Q 5.609375 18.84375 5.609375 36.375 
Q 5.609375 53.953125 15.125 64.078125 
Q 24.65625 74.21875 41.21875 74.21875 
Q 47.75 74.21875 53.53125 72.484375 
Q 59.328125 70.75 64.40625 67.28125 
z
" id="DejaVuSans-67"/>
       <path d="M 9.8125 72.90625 
L 55.90625 72.90625 
L 55.90625 64.59375 
L 19.671875 64.59375 
L 19.671875 43.015625 
L 54.390625 43.015625 
L 54.390625 34.71875 
L 19.671875 34.71875 
L 19.671875 8.296875 
L 56.78125 8.296875 
L 56.78125 0 
L 9.8125 0 
z
" id="DejaVuSans-69"/>
       <path d="M 34.1875 63.1875 
L 20.796875 26.90625 
L 47.609375 26.90625 
z
M 28.609375 72.90625 
L 39.796875 72.90625 
L 67.578125 0 
L 57.328125 0 
L 50.6875 18.703125 
L 17.828125 18.703125 
L 11.1875 0 
L 0.78125 0 
z
" id="DejaVuSans-65"/>
       <path d="M 9.8125 72.90625 
L 23.09375 72.90625 
L 55.421875 11.921875 
L 55.421875 72.90625 
L 64.984375 72.90625 
L 64.984375 0 
L 51.703125 0 
L 19.390625 60.984375 
L 19.390625 0 
L 9.8125 0 
z
" id="DejaVuSans-78"/>
      </defs>
      <g transform="translate(85.000156 555.910312)scale(0.1 -0.1)">
       <use xlink:href="#DejaVuSans-60"/>
       <use x="83.789062" xlink:href="#DejaVuSans-49"/>
       <use x="147.412109" xlink:href="#DejaVuSans-72"/>
       <use x="222.607422" xlink:href="#DejaVuSans-32"/>
       <use x="254.394531" xlink:href="#DejaVuSans-79"/>
       <use x="333.105469" xlink:href="#DejaVuSans-67"/>
       <use x="402.929688" xlink:href="#DejaVuSans-69"/>
       <use x="466.113281" xlink:href="#DejaVuSans-65"/>
       <use x="534.521484" xlink:href="#DejaVuSans-78"/>
      </g>
     </g>
    </g>
    <g id="xtick_2">
     <g id="line2d_2">
      <g>
       <use style="stroke:#000000;stroke-width:0.8;" x="213.741875" xlink:href="#m465c9af37d" y="541.311875"/>
      </g>
     </g>
     <g id="text_2">
      <!-- INLAND -->
      <defs>
       <path d="M 9.8125 72.90625 
L 19.671875 72.90625 
L 19.671875 0 
L 9.8125 0 
z
" id="DejaVuSans-73"/>
       <path d="M 9.8125 72.90625 
L 19.671875 72.90625 
L 19.671875 8.296875 
L 55.171875 8.296875 
L 55.171875 0 
L 9.8125 0 
z
" id="DejaVuSans-76"/>
       <path d="M 19.671875 64.796875 
L 19.671875 8.109375 
L 31.59375 8.109375 
Q 46.6875 8.109375 53.6875 14.9375 
Q 60.6875 21.78125 60.6875 36.53125 
Q 60.6875 51.171875 53.6875 57.984375 
Q 46.6875 64.796875 31.59375 64.796875 
z
M 9.8125 72.90625 
L 30.078125 72.90625 
Q 51.265625 72.90625 61.171875 64.09375 
Q 71.09375 55.28125 71.09375 36.53125 
Q 71.09375 17.671875 61.125 8.828125 
Q 51.171875 0 30.078125 0 
L 9.8125 0 
z
" id="DejaVuSans-68"/>
      </defs>
      <g transform="translate(194.727813 555.910312)scale(0.1 -0.1)">
       <use xlink:href="#DejaVuSans-73"/>
       <use x="29.492188" xlink:href="#DejaVuSans-78"/>
       <use x="104.296875" xlink:href="#DejaVuSans-76"/>
       <use x="160.041016" xlink:href="#DejaVuSans-65"/>
       <use x="228.449219" xlink:href="#DejaVuSans-78"/>
       <use x="303.253906" xlink:href="#DejaVuSans-68"/>
      </g>
     </g>
    </g>
    <g id="xtick_3">
     <g id="line2d_3">
      <g>
       <use style="stroke:#000000;stroke-width:0.8;" x="312.015625" xlink:href="#m465c9af37d" y="541.311875"/>
      </g>
     </g>
     <g id="text_3">
      <!-- NEAR BAY -->
      <defs>
       <path d="M 44.390625 34.1875 
Q 47.5625 33.109375 50.5625 29.59375 
Q 53.5625 26.078125 56.59375 19.921875 
L 66.609375 0 
L 56 0 
L 46.6875 18.703125 
Q 43.0625 26.03125 39.671875 28.421875 
Q 36.28125 30.8125 30.421875 30.8125 
L 19.671875 30.8125 
L 19.671875 0 
L 9.8125 0 
L 9.8125 72.90625 
L 32.078125 72.90625 
Q 44.578125 72.90625 50.734375 67.671875 
Q 56.890625 62.453125 56.890625 51.90625 
Q 56.890625 45.015625 53.6875 40.46875 
Q 50.484375 35.9375 44.390625 34.1875 
z
M 19.671875 64.796875 
L 19.671875 38.921875 
L 32.078125 38.921875 
Q 39.203125 38.921875 42.84375 42.21875 
Q 46.484375 45.515625 46.484375 51.90625 
Q 46.484375 58.296875 42.84375 61.546875 
Q 39.203125 64.796875 32.078125 64.796875 
z
" id="DejaVuSans-82"/>
       <path d="M 19.671875 34.8125 
L 19.671875 8.109375 
L 35.5 8.109375 
Q 43.453125 8.109375 47.28125 11.40625 
Q 51.125 14.703125 51.125 21.484375 
Q 51.125 28.328125 47.28125 31.5625 
Q 43.453125 34.8125 35.5 34.8125 
z
M 19.671875 64.796875 
L 19.671875 42.828125 
L 34.28125 42.828125 
Q 41.5 42.828125 45.03125 45.53125 
Q 48.578125 48.25 48.578125 53.8125 
Q 48.578125 59.328125 45.03125 62.0625 
Q 41.5 64.796875 34.28125 64.796875 
z
M 9.8125 72.90625 
L 35.015625 72.90625 
Q 46.296875 72.90625 52.390625 68.21875 
Q 58.5 63.53125 58.5 54.890625 
Q 58.5 48.1875 55.375 44.234375 
Q 52.25 40.28125 46.1875 39.3125 
Q 53.46875 37.75 57.5 32.78125 
Q 61.53125 27.828125 61.53125 20.40625 
Q 61.53125 10.640625 54.890625 5.3125 
Q 48.25 0 35.984375 0 
L 9.8125 0 
z
" id="DejaVuSans-66"/>
       <path d="M -0.203125 72.90625 
L 10.40625 72.90625 
L 30.609375 42.921875 
L 50.6875 72.90625 
L 61.28125 72.90625 
L 35.5 34.71875 
L 35.5 0 
L 25.59375 0 
L 25.59375 34.71875 
z
" id="DejaVuSans-89"/>
      </defs>
      <g transform="translate(286.732813 555.910312)scale(0.1 -0.1)">
       <use xlink:href="#DejaVuSans-78"/>
       <use x="74.804688" xlink:href="#DejaVuSans-69"/>
       <use x="137.988281" xlink:href="#DejaVuSans-65"/>
       <use x="206.396484" xlink:href="#DejaVuSans-82"/>
       <use x="275.878906" xlink:href="#DejaVuSans-32"/>
       <use x="307.666016" xlink:href="#DejaVuSans-66"/>
       <use x="376.269531" xlink:href="#DejaVuSans-65"/>
       <use x="444.568359" xlink:href="#DejaVuSans-89"/>
      </g>
     </g>
    </g>
    <g id="xtick_4">
     <g id="line2d_4">
      <g>
       <use style="stroke:#000000;stroke-width:0.8;" x="410.289375" xlink:href="#m465c9af37d" y="541.311875"/>
      </g>
     </g>
     <g id="text_4">
      <!-- NEAR OCEAN -->
      <g transform="translate(377.158125 555.910312)scale(0.1 -0.1)">
       <use xlink:href="#DejaVuSans-78"/>
       <use x="74.804688" xlink:href="#DejaVuSans-69"/>
       <use x="137.988281" xlink:href="#DejaVuSans-65"/>
       <use x="206.396484" xlink:href="#DejaVuSans-82"/>
       <use x="275.878906" xlink:href="#DejaVuSans-32"/>
       <use x="307.666016" xlink:href="#DejaVuSans-79"/>
       <use x="386.376953" xlink:href="#DejaVuSans-67"/>
       <use x="456.201172" xlink:href="#DejaVuSans-69"/>
       <use x="519.384766" xlink:href="#DejaVuSans-65"/>
       <use x="587.792969" xlink:href="#DejaVuSans-78"/>
      </g>
     </g>
    </g>
    <g id="xtick_5">
     <g id="line2d_5">
      <g>
       <use style="stroke:#000000;stroke-width:0.8;" x="508.563125" xlink:href="#m465c9af37d" y="541.311875"/>
      </g>
     </g>
     <g id="text_5">
      <!-- ISLAND -->
      <defs>
       <path d="M 53.515625 70.515625 
L 53.515625 60.890625 
Q 47.90625 63.578125 42.921875 64.890625 
Q 37.9375 66.21875 33.296875 66.21875 
Q 25.25 66.21875 20.875 63.09375 
Q 16.5 59.96875 16.5 54.203125 
Q 16.5 49.359375 19.40625 46.890625 
Q 22.3125 44.4375 30.421875 42.921875 
L 36.375 41.703125 
Q 47.40625 39.59375 52.65625 34.296875 
Q 57.90625 29 57.90625 20.125 
Q 57.90625 9.515625 50.796875 4.046875 
Q 43.703125 -1.421875 29.984375 -1.421875 
Q 24.8125 -1.421875 18.96875 -0.25 
Q 13.140625 0.921875 6.890625 3.21875 
L 6.890625 13.375 
Q 12.890625 10.015625 18.65625 8.296875 
Q 24.421875 6.59375 29.984375 6.59375 
Q 38.421875 6.59375 43.015625 9.90625 
Q 47.609375 13.234375 47.609375 19.390625 
Q 47.609375 24.75 44.3125 27.78125 
Q 41.015625 30.8125 33.5 32.328125 
L 27.484375 33.5 
Q 16.453125 35.6875 11.515625 40.375 
Q 6.59375 45.0625 6.59375 53.421875 
Q 6.59375 63.09375 13.40625 68.65625 
Q 20.21875 74.21875 32.171875 74.21875 
Q 37.3125 74.21875 42.625 73.28125 
Q 47.953125 72.359375 53.515625 70.515625 
z
" id="DejaVuSans-83"/>
      </defs>
      <g transform="translate(490.115469 555.910312)scale(0.1 -0.1)">
       <use xlink:href="#DejaVuSans-73"/>
       <use x="29.492188" xlink:href="#DejaVuSans-83"/>
       <use x="92.96875" xlink:href="#DejaVuSans-76"/>
       <use x="148.712891" xlink:href="#DejaVuSans-65"/>
       <use x="217.121094" xlink:href="#DejaVuSans-78"/>
       <use x="291.925781" xlink:href="#DejaVuSans-68"/>
      </g>
     </g>
    </g>
    <g id="text_6">
     <!-- ocean_proximity -->
     <defs>
      <path d="M 30.609375 48.390625 
Q 23.390625 48.390625 19.1875 42.75 
Q 14.984375 37.109375 14.984375 27.296875 
Q 14.984375 17.484375 19.15625 11.84375 
Q 23.34375 6.203125 30.609375 6.203125 
Q 37.796875 6.203125 41.984375 11.859375 
Q 46.1875 17.53125 46.1875 27.296875 
Q 46.1875 37.015625 41.984375 42.703125 
Q 37.796875 48.390625 30.609375 48.390625 
z
M 30.609375 56 
Q 42.328125 56 49.015625 48.375 
Q 55.71875 40.765625 55.71875 27.296875 
Q 55.71875 13.875 49.015625 6.21875 
Q 42.328125 -1.421875 30.609375 -1.421875 
Q 18.84375 -1.421875 12.171875 6.21875 
Q 5.515625 13.875 5.515625 27.296875 
Q 5.515625 40.765625 12.171875 48.375 
Q 18.84375 56 30.609375 56 
z
" id="DejaVuSans-111"/>
      <path d="M 48.78125 52.59375 
L 48.78125 44.1875 
Q 44.96875 46.296875 41.140625 47.34375 
Q 37.3125 48.390625 33.40625 48.390625 
Q 24.65625 48.390625 19.8125 42.84375 
Q 14.984375 37.3125 14.984375 27.296875 
Q 14.984375 17.28125 19.8125 11.734375 
Q 24.65625 6.203125 33.40625 6.203125 
Q 37.3125 6.203125 41.140625 7.25 
Q 44.96875 8.296875 48.78125 10.40625 
L 48.78125 2.09375 
Q 45.015625 0.34375 40.984375 -0.53125 
Q 36.96875 -1.421875 32.421875 -1.421875 
Q 20.0625 -1.421875 12.78125 6.34375 
Q 5.515625 14.109375 5.515625 27.296875 
Q 5.515625 40.671875 12.859375 48.328125 
Q 20.21875 56 33.015625 56 
Q 37.15625 56 41.109375 55.140625 
Q 45.0625 54.296875 48.78125 52.59375 
z
" id="DejaVuSans-99"/>
      <path d="M 56.203125 29.59375 
L 56.203125 25.203125 
L 14.890625 25.203125 
Q 15.484375 15.921875 20.484375 11.0625 
Q 25.484375 6.203125 34.421875 6.203125 
Q 39.59375 6.203125 44.453125 7.46875 
Q 49.3125 8.734375 54.109375 11.28125 
L 54.109375 2.78125 
Q 49.265625 0.734375 44.1875 -0.34375 
Q 39.109375 -1.421875 33.890625 -1.421875 
Q 20.796875 -1.421875 13.15625 6.1875 
Q 5.515625 13.8125 5.515625 26.8125 
Q 5.515625 40.234375 12.765625 48.109375 
Q 20.015625 56 32.328125 56 
Q 43.359375 56 49.78125 48.890625 
Q 56.203125 41.796875 56.203125 29.59375 
z
M 47.21875 32.234375 
Q 47.125 39.59375 43.09375 43.984375 
Q 39.0625 48.390625 32.421875 48.390625 
Q 24.90625 48.390625 20.390625 44.140625 
Q 15.875 39.890625 15.1875 32.171875 
z
" id="DejaVuSans-101"/>
      <path d="M 34.28125 27.484375 
Q 23.390625 27.484375 19.1875 25 
Q 14.984375 22.515625 14.984375 16.5 
Q 14.984375 11.71875 18.140625 8.90625 
Q 21.296875 6.109375 26.703125 6.109375 
Q 34.1875 6.109375 38.703125 11.40625 
Q 43.21875 16.703125 43.21875 25.484375 
L 43.21875 27.484375 
z
M 52.203125 31.203125 
L 52.203125 0 
L 43.21875 0 
L 43.21875 8.296875 
Q 40.140625 3.328125 35.546875 0.953125 
Q 30.953125 -1.421875 24.3125 -1.421875 
Q 15.921875 -1.421875 10.953125 3.296875 
Q 6 8.015625 6 15.921875 
Q 6 25.140625 12.171875 29.828125 
Q 18.359375 34.515625 30.609375 34.515625 
L 43.21875 34.515625 
L 43.21875 35.40625 
Q 43.21875 41.609375 39.140625 45 
Q 35.0625 48.390625 27.6875 48.390625 
Q 23 48.390625 18.546875 47.265625 
Q 14.109375 46.140625 10.015625 43.890625 
L 10.015625 52.203125 
Q 14.9375 54.109375 19.578125 55.046875 
Q 24.21875 56 28.609375 56 
Q 40.484375 56 46.34375 49.84375 
Q 52.203125 43.703125 52.203125 31.203125 
z
" id="DejaVuSans-97"/>
      <path d="M 54.890625 33.015625 
L 54.890625 0 
L 45.90625 0 
L 45.90625 32.71875 
Q 45.90625 40.484375 42.875 44.328125 
Q 39.84375 48.1875 33.796875 48.1875 
Q 26.515625 48.1875 22.3125 43.546875 
Q 18.109375 38.921875 18.109375 30.90625 
L 18.109375 0 
L 9.078125 0 
L 9.078125 54.6875 
L 18.109375 54.6875 
L 18.109375 46.1875 
Q 21.34375 51.125 25.703125 53.5625 
Q 30.078125 56 35.796875 56 
Q 45.21875 56 50.046875 50.171875 
Q 54.890625 44.34375 54.890625 33.015625 
z
" id="DejaVuSans-110"/>
      <path d="M 50.984375 -16.609375 
L 50.984375 -23.578125 
L -0.984375 -23.578125 
L -0.984375 -16.609375 
z
" id="DejaVuSans-95"/>
      <path d="M 18.109375 8.203125 
L 18.109375 -20.796875 
L 9.078125 -20.796875 
L 9.078125 54.6875 
L 18.109375 54.6875 
L 18.109375 46.390625 
Q 20.953125 51.265625 25.265625 53.625 
Q 29.59375 56 35.59375 56 
Q 45.5625 56 51.78125 48.09375 
Q 58.015625 40.1875 58.015625 27.296875 
Q 58.015625 14.40625 51.78125 6.484375 
Q 45.5625 -1.421875 35.59375 -1.421875 
Q 29.59375 -1.421875 25.265625 0.953125 
Q 20.953125 3.328125 18.109375 8.203125 
z
M 48.6875 27.296875 
Q 48.6875 37.203125 44.609375 42.84375 
Q 40.53125 48.484375 33.40625 48.484375 
Q 26.265625 48.484375 22.1875 42.84375 
Q 18.109375 37.203125 18.109375 27.296875 
Q 18.109375 17.390625 22.1875 11.75 
Q 26.265625 6.109375 33.40625 6.109375 
Q 40.53125 6.109375 44.609375 11.75 
Q 48.6875 17.390625 48.6875 27.296875 
z
" id="DejaVuSans-112"/>
      <path d="M 41.109375 46.296875 
Q 39.59375 47.171875 37.8125 47.578125 
Q 36.03125 48 33.890625 48 
Q 26.265625 48 22.1875 43.046875 
Q 18.109375 38.09375 18.109375 28.8125 
L 18.109375 0 
L 9.078125 0 
L 9.078125 54.6875 
L 18.109375 54.6875 
L 18.109375 46.1875 
Q 20.953125 51.171875 25.484375 53.578125 
Q 30.03125 56 36.53125 56 
Q 37.453125 56 38.578125 55.875 
Q 39.703125 55.765625 41.0625 55.515625 
z
" id="DejaVuSans-114"/>
      <path d="M 54.890625 54.6875 
L 35.109375 28.078125 
L 55.90625 0 
L 45.3125 0 
L 29.390625 21.484375 
L 13.484375 0 
L 2.875 0 
L 24.125 28.609375 
L 4.6875 54.6875 
L 15.28125 54.6875 
L 29.78125 35.203125 
L 44.28125 54.6875 
z
" id="DejaVuSans-120"/>
      <path d="M 9.421875 54.6875 
L 18.40625 54.6875 
L 18.40625 0 
L 9.421875 0 
z
M 9.421875 75.984375 
L 18.40625 75.984375 
L 18.40625 64.59375 
L 9.421875 64.59375 
z
" id="DejaVuSans-105"/>
      <path d="M 52 44.1875 
Q 55.375 50.25 60.0625 53.125 
Q 64.75 56 71.09375 56 
Q 79.640625 56 84.28125 50.015625 
Q 88.921875 44.046875 88.921875 33.015625 
L 88.921875 0 
L 79.890625 0 
L 79.890625 32.71875 
Q 79.890625 40.578125 77.09375 44.375 
Q 74.3125 48.1875 68.609375 48.1875 
Q 61.625 48.1875 57.5625 43.546875 
Q 53.515625 38.921875 53.515625 30.90625 
L 53.515625 0 
L 44.484375 0 
L 44.484375 32.71875 
Q 44.484375 40.625 41.703125 44.40625 
Q 38.921875 48.1875 33.109375 48.1875 
Q 26.21875 48.1875 22.15625 43.53125 
Q 18.109375 38.875 18.109375 30.90625 
L 18.109375 0 
L 9.078125 0 
L 9.078125 54.6875 
L 18.109375 54.6875 
L 18.109375 46.1875 
Q 21.1875 51.21875 25.484375 53.609375 
Q 29.78125 56 35.6875 56 
Q 41.65625 56 45.828125 52.96875 
Q 50 49.953125 52 44.1875 
z
" id="DejaVuSans-109"/>
      <path d="M 18.3125 70.21875 
L 18.3125 54.6875 
L 36.8125 54.6875 
L 36.8125 47.703125 
L 18.3125 47.703125 
L 18.3125 18.015625 
Q 18.3125 11.328125 20.140625 9.421875 
Q 21.96875 7.515625 27.59375 7.515625 
L 36.8125 7.515625 
L 36.8125 0 
L 27.59375 0 
Q 17.1875 0 13.234375 3.875 
Q 9.28125 7.765625 9.28125 18.015625 
L 9.28125 47.703125 
L 2.6875 47.703125 
L 2.6875 54.6875 
L 9.28125 54.6875 
L 9.28125 70.21875 
z
" id="DejaVuSans-116"/>
      <path d="M 32.171875 -5.078125 
Q 28.375 -14.84375 24.75 -17.8125 
Q 21.140625 -20.796875 15.09375 -20.796875 
L 7.90625 -20.796875 
L 7.90625 -13.28125 
L 13.1875 -13.28125 
Q 16.890625 -13.28125 18.9375 -11.515625 
Q 21 -9.765625 23.484375 -3.21875 
L 25.09375 0.875 
L 2.984375 54.6875 
L 12.5 54.6875 
L 29.59375 11.921875 
L 46.6875 54.6875 
L 56.203125 54.6875 
z
" id="DejaVuSans-121"/>
     </defs>
     <g transform="translate(270.585156 569.588437)scale(0.1 -0.1)">
      <use xlink:href="#DejaVuSans-111"/>
      <use x="61.181641" xlink:href="#DejaVuSans-99"/>
      <use x="116.162109" xlink:href="#DejaVuSans-101"/>
      <use x="177.685547" xlink:href="#DejaVuSans-97"/>
      <use x="238.964844" xlink:href="#DejaVuSans-110"/>
      <use x="302.34375" xlink:href="#DejaVuSans-95"/>
      <use x="352.34375" xlink:href="#DejaVuSans-112"/>
      <use x="415.820312" xlink:href="#DejaVuSans-114"/>
      <use x="456.902344" xlink:href="#DejaVuSans-111"/>
      <use x="518.037109" xlink:href="#DejaVuSans-120"/>
      <use x="577.216797" xlink:href="#DejaVuSans-105"/>
      <use x="605" xlink:href="#DejaVuSans-109"/>
      <use x="702.412109" xlink:href="#DejaVuSans-105"/>
      <use x="730.195312" xlink:href="#DejaVuSans-116"/>
      <use x="769.404297" xlink:href="#DejaVuSans-121"/>
     </g>
    </g>
   </g>
   <g id="matplotlib.axis_2">
    <g id="ytick_1">
     <g id="line2d_6">
      <defs>
       <path d="M 0 0 
L -3.5 0 
" id="m9f5d9ae7ae" style="stroke:#000000;stroke-width:0.8;"/>
      </defs>
      <g>
       <use style="stroke:#000000;stroke-width:0.8;" x="66.33125" xlink:href="#m9f5d9ae7ae" y="473.4097"/>
      </g>
     </g>
     <g id="text_7">
      <!-- 0 -->
      <defs>
       <path d="M 31.78125 66.40625 
Q 24.171875 66.40625 20.328125 58.90625 
Q 16.5 51.421875 16.5 36.375 
Q 16.5 21.390625 20.328125 13.890625 
Q 24.171875 6.390625 31.78125 6.390625 
Q 39.453125 6.390625 43.28125 13.890625 
Q 47.125 21.390625 47.125 36.375 
Q 47.125 51.421875 43.28125 58.90625 
Q 39.453125 66.40625 31.78125 66.40625 
z
M 31.78125 74.21875 
Q 44.046875 74.21875 50.515625 64.515625 
Q 56.984375 54.828125 56.984375 36.375 
Q 56.984375 17.96875 50.515625 8.265625 
Q 44.046875 -1.421875 31.78125 -1.421875 
Q 19.53125 -1.421875 13.0625 8.265625 
Q 6.59375 17.96875 6.59375 36.375 
Q 6.59375 54.828125 13.0625 64.515625 
Q 19.53125 74.21875 31.78125 74.21875 
z
" id="DejaVuSans-48"/>
      </defs>
      <g transform="translate(52.96875 477.208919)scale(0.1 -0.1)">
       <use xlink:href="#DejaVuSans-48"/>
      </g>
     </g>
    </g>
    <g id="ytick_2">
     <g id="line2d_7">
      <g>
       <use style="stroke:#000000;stroke-width:0.8;" x="66.33125" xlink:href="#m9f5d9ae7ae" y="400.072016"/>
      </g>
     </g>
     <g id="text_8">
      <!-- 100000 -->
      <g transform="translate(21.15625 403.871235)scale(0.1 -0.1)">
       <use xlink:href="#DejaVuSans-49"/>
       <use x="63.623047" xlink:href="#DejaVuSans-48"/>
       <use x="127.246094" xlink:href="#DejaVuSans-48"/>
       <use x="190.869141" xlink:href="#DejaVuSans-48"/>
       <use x="254.492188" xlink:href="#DejaVuSans-48"/>
       <use x="318.115234" xlink:href="#DejaVuSans-48"/>
      </g>
     </g>
    </g>
    <g id="ytick_3">
     <g id="line2d_8">
      <g>
       <use style="stroke:#000000;stroke-width:0.8;" x="66.33125" xlink:href="#m9f5d9ae7ae" y="326.734332"/>
      </g>
     </g>
     <g id="text_9">
      <!-- 200000 -->
      <defs>
       <path d="M 19.1875 8.296875 
L 53.609375 8.296875 
L 53.609375 0 
L 7.328125 0 
L 7.328125 8.296875 
Q 12.9375 14.109375 22.625 23.890625 
Q 32.328125 33.6875 34.8125 36.53125 
Q 39.546875 41.84375 41.421875 45.53125 
Q 43.3125 49.21875 43.3125 52.78125 
Q 43.3125 58.59375 39.234375 62.25 
Q 35.15625 65.921875 28.609375 65.921875 
Q 23.96875 65.921875 18.8125 64.3125 
Q 13.671875 62.703125 7.8125 59.421875 
L 7.8125 69.390625 
Q 13.765625 71.78125 18.9375 73 
Q 24.125 74.21875 28.421875 74.21875 
Q 39.75 74.21875 46.484375 68.546875 
Q 53.21875 62.890625 53.21875 53.421875 
Q 53.21875 48.921875 51.53125 44.890625 
Q 49.859375 40.875 45.40625 35.40625 
Q 44.1875 33.984375 37.640625 27.21875 
Q 31.109375 20.453125 19.1875 8.296875 
z
" id="DejaVuSans-50"/>
      </defs>
      <g transform="translate(21.15625 330.53355)scale(0.1 -0.1)">
       <use xlink:href="#DejaVuSans-50"/>
       <use x="63.623047" xlink:href="#DejaVuSans-48"/>
       <use x="127.246094" xlink:href="#DejaVuSans-48"/>
       <use x="190.869141" xlink:href="#DejaVuSans-48"/>
       <use x="254.492188" xlink:href="#DejaVuSans-48"/>
       <use x="318.115234" xlink:href="#DejaVuSans-48"/>
      </g>
     </g>
    </g>
    <g id="ytick_4">
     <g id="line2d_9">
      <g>
       <use style="stroke:#000000;stroke-width:0.8;" x="66.33125" xlink:href="#m9f5d9ae7ae" y="253.396647"/>
      </g>
     </g>
     <g id="text_10">
      <!-- 300000 -->
      <defs>
       <path d="M 40.578125 39.3125 
Q 47.65625 37.796875 51.625 33 
Q 55.609375 28.21875 55.609375 21.1875 
Q 55.609375 10.40625 48.1875 4.484375 
Q 40.765625 -1.421875 27.09375 -1.421875 
Q 22.515625 -1.421875 17.65625 -0.515625 
Q 12.796875 0.390625 7.625 2.203125 
L 7.625 11.71875 
Q 11.71875 9.328125 16.59375 8.109375 
Q 21.484375 6.890625 26.8125 6.890625 
Q 36.078125 6.890625 40.9375 10.546875 
Q 45.796875 14.203125 45.796875 21.1875 
Q 45.796875 27.640625 41.28125 31.265625 
Q 36.765625 34.90625 28.71875 34.90625 
L 20.21875 34.90625 
L 20.21875 43.015625 
L 29.109375 43.015625 
Q 36.375 43.015625 40.234375 45.921875 
Q 44.09375 48.828125 44.09375 54.296875 
Q 44.09375 59.90625 40.109375 62.90625 
Q 36.140625 65.921875 28.71875 65.921875 
Q 24.65625 65.921875 20.015625 65.03125 
Q 15.375 64.15625 9.8125 62.3125 
L 9.8125 71.09375 
Q 15.4375 72.65625 20.34375 73.4375 
Q 25.25 74.21875 29.59375 74.21875 
Q 40.828125 74.21875 47.359375 69.109375 
Q 53.90625 64.015625 53.90625 55.328125 
Q 53.90625 49.265625 50.4375 45.09375 
Q 46.96875 40.921875 40.578125 39.3125 
z
" id="DejaVuSans-51"/>
      </defs>
      <g transform="translate(21.15625 257.195866)scale(0.1 -0.1)">
       <use xlink:href="#DejaVuSans-51"/>
       <use x="63.623047" xlink:href="#DejaVuSans-48"/>
       <use x="127.246094" xlink:href="#DejaVuSans-48"/>
       <use x="190.869141" xlink:href="#DejaVuSans-48"/>
       <use x="254.492188" xlink:href="#DejaVuSans-48"/>
       <use x="318.115234" xlink:href="#DejaVuSans-48"/>
      </g>
     </g>
    </g>
    <g id="ytick_5">
     <g id="line2d_10">
      <g>
       <use style="stroke:#000000;stroke-width:0.8;" x="66.33125" xlink:href="#m9f5d9ae7ae" y="180.058963"/>
      </g>
     </g>
     <g id="text_11">
      <!-- 400000 -->
      <defs>
       <path d="M 37.796875 64.3125 
L 12.890625 25.390625 
L 37.796875 25.390625 
z
M 35.203125 72.90625 
L 47.609375 72.90625 
L 47.609375 25.390625 
L 58.015625 25.390625 
L 58.015625 17.1875 
L 47.609375 17.1875 
L 47.609375 0 
L 37.796875 0 
L 37.796875 17.1875 
L 4.890625 17.1875 
L 4.890625 26.703125 
z
" id="DejaVuSans-52"/>
      </defs>
      <g transform="translate(21.15625 183.858182)scale(0.1 -0.1)">
       <use xlink:href="#DejaVuSans-52"/>
       <use x="63.623047" xlink:href="#DejaVuSans-48"/>
       <use x="127.246094" xlink:href="#DejaVuSans-48"/>
       <use x="190.869141" xlink:href="#DejaVuSans-48"/>
       <use x="254.492188" xlink:href="#DejaVuSans-48"/>
       <use x="318.115234" xlink:href="#DejaVuSans-48"/>
      </g>
     </g>
    </g>
    <g id="ytick_6">
     <g id="line2d_11">
      <g>
       <use style="stroke:#000000;stroke-width:0.8;" x="66.33125" xlink:href="#m9f5d9ae7ae" y="106.721279"/>
      </g>
     </g>
     <g id="text_12">
      <!-- 500000 -->
      <defs>
       <path d="M 10.796875 72.90625 
L 49.515625 72.90625 
L 49.515625 64.59375 
L 19.828125 64.59375 
L 19.828125 46.734375 
Q 21.96875 47.46875 24.109375 47.828125 
Q 26.265625 48.1875 28.421875 48.1875 
Q 40.625 48.1875 47.75 41.5 
Q 54.890625 34.8125 54.890625 23.390625 
Q 54.890625 11.625 47.5625 5.09375 
Q 40.234375 -1.421875 26.90625 -1.421875 
Q 22.3125 -1.421875 17.546875 -0.640625 
Q 12.796875 0.140625 7.71875 1.703125 
L 7.71875 11.625 
Q 12.109375 9.234375 16.796875 8.0625 
Q 21.484375 6.890625 26.703125 6.890625 
Q 35.15625 6.890625 40.078125 11.328125 
Q 45.015625 15.765625 45.015625 23.390625 
Q 45.015625 31 40.078125 35.4375 
Q 35.15625 39.890625 26.703125 39.890625 
Q 22.75 39.890625 18.8125 39.015625 
Q 14.890625 38.140625 10.796875 36.28125 
z
" id="DejaVuSans-53"/>
      </defs>
      <g transform="translate(21.15625 110.520497)scale(0.1 -0.1)">
       <use xlink:href="#DejaVuSans-53"/>
       <use x="63.623047" xlink:href="#DejaVuSans-48"/>
       <use x="127.246094" xlink:href="#DejaVuSans-48"/>
       <use x="190.869141" xlink:href="#DejaVuSans-48"/>
       <use x="254.492188" xlink:href="#DejaVuSans-48"/>
       <use x="318.115234" xlink:href="#DejaVuSans-48"/>
      </g>
     </g>
    </g>
    <g id="ytick_7">
     <g id="line2d_12">
      <g>
       <use style="stroke:#000000;stroke-width:0.8;" x="66.33125" xlink:href="#m9f5d9ae7ae" y="33.383594"/>
      </g>
     </g>
     <g id="text_13">
      <!-- 600000 -->
      <defs>
       <path d="M 33.015625 40.375 
Q 26.375 40.375 22.484375 35.828125 
Q 18.609375 31.296875 18.609375 23.390625 
Q 18.609375 15.53125 22.484375 10.953125 
Q 26.375 6.390625 33.015625 6.390625 
Q 39.65625 6.390625 43.53125 10.953125 
Q 47.40625 15.53125 47.40625 23.390625 
Q 47.40625 31.296875 43.53125 35.828125 
Q 39.65625 40.375 33.015625 40.375 
z
M 52.59375 71.296875 
L 52.59375 62.3125 
Q 48.875 64.0625 45.09375 64.984375 
Q 41.3125 65.921875 37.59375 65.921875 
Q 27.828125 65.921875 22.671875 59.328125 
Q 17.53125 52.734375 16.796875 39.40625 
Q 19.671875 43.65625 24.015625 45.921875 
Q 28.375 48.1875 33.59375 48.1875 
Q 44.578125 48.1875 50.953125 41.515625 
Q 57.328125 34.859375 57.328125 23.390625 
Q 57.328125 12.15625 50.6875 5.359375 
Q 44.046875 -1.421875 33.015625 -1.421875 
Q 20.359375 -1.421875 13.671875 8.265625 
Q 6.984375 17.96875 6.984375 36.375 
Q 6.984375 53.65625 15.1875 63.9375 
Q 23.390625 74.21875 37.203125 74.21875 
Q 40.921875 74.21875 44.703125 73.484375 
Q 48.484375 72.75 52.59375 71.296875 
z
" id="DejaVuSans-54"/>
      </defs>
      <g transform="translate(21.15625 37.182813)scale(0.1 -0.1)">
       <use xlink:href="#DejaVuSans-54"/>
       <use x="63.623047" xlink:href="#DejaVuSans-48"/>
       <use x="127.246094" xlink:href="#DejaVuSans-48"/>
       <use x="190.869141" xlink:href="#DejaVuSans-48"/>
       <use x="254.492188" xlink:href="#DejaVuSans-48"/>
       <use x="318.115234" xlink:href="#DejaVuSans-48"/>
      </g>
     </g>
    </g>
    <g id="text_14">
     <!-- median_house_value -->
     <defs>
      <path d="M 45.40625 46.390625 
L 45.40625 75.984375 
L 54.390625 75.984375 
L 54.390625 0 
L 45.40625 0 
L 45.40625 8.203125 
Q 42.578125 3.328125 38.25 0.953125 
Q 33.9375 -1.421875 27.875 -1.421875 
Q 17.96875 -1.421875 11.734375 6.484375 
Q 5.515625 14.40625 5.515625 27.296875 
Q 5.515625 40.1875 11.734375 48.09375 
Q 17.96875 56 27.875 56 
Q 33.9375 56 38.25 53.625 
Q 42.578125 51.265625 45.40625 46.390625 
z
M 14.796875 27.296875 
Q 14.796875 17.390625 18.875 11.75 
Q 22.953125 6.109375 30.078125 6.109375 
Q 37.203125 6.109375 41.296875 11.75 
Q 45.40625 17.390625 45.40625 27.296875 
Q 45.40625 37.203125 41.296875 42.84375 
Q 37.203125 48.484375 30.078125 48.484375 
Q 22.953125 48.484375 18.875 42.84375 
Q 14.796875 37.203125 14.796875 27.296875 
z
" id="DejaVuSans-100"/>
      <path d="M 54.890625 33.015625 
L 54.890625 0 
L 45.90625 0 
L 45.90625 32.71875 
Q 45.90625 40.484375 42.875 44.328125 
Q 39.84375 48.1875 33.796875 48.1875 
Q 26.515625 48.1875 22.3125 43.546875 
Q 18.109375 38.921875 18.109375 30.90625 
L 18.109375 0 
L 9.078125 0 
L 9.078125 75.984375 
L 18.109375 75.984375 
L 18.109375 46.1875 
Q 21.34375 51.125 25.703125 53.5625 
Q 30.078125 56 35.796875 56 
Q 45.21875 56 50.046875 50.171875 
Q 54.890625 44.34375 54.890625 33.015625 
z
" id="DejaVuSans-104"/>
      <path d="M 8.5 21.578125 
L 8.5 54.6875 
L 17.484375 54.6875 
L 17.484375 21.921875 
Q 17.484375 14.15625 20.5 10.265625 
Q 23.53125 6.390625 29.59375 6.390625 
Q 36.859375 6.390625 41.078125 11.03125 
Q 45.3125 15.671875 45.3125 23.6875 
L 45.3125 54.6875 
L 54.296875 54.6875 
L 54.296875 0 
L 45.3125 0 
L 45.3125 8.40625 
Q 42.046875 3.421875 37.71875 1 
Q 33.40625 -1.421875 27.6875 -1.421875 
Q 18.265625 -1.421875 13.375 4.4375 
Q 8.5 10.296875 8.5 21.578125 
z
M 31.109375 56 
z
" id="DejaVuSans-117"/>
      <path d="M 44.28125 53.078125 
L 44.28125 44.578125 
Q 40.484375 46.53125 36.375 47.5 
Q 32.28125 48.484375 27.875 48.484375 
Q 21.1875 48.484375 17.84375 46.4375 
Q 14.5 44.390625 14.5 40.28125 
Q 14.5 37.15625 16.890625 35.375 
Q 19.28125 33.59375 26.515625 31.984375 
L 29.59375 31.296875 
Q 39.15625 29.25 43.1875 25.515625 
Q 47.21875 21.78125 47.21875 15.09375 
Q 47.21875 7.46875 41.1875 3.015625 
Q 35.15625 -1.421875 24.609375 -1.421875 
Q 20.21875 -1.421875 15.453125 -0.5625 
Q 10.6875 0.296875 5.421875 2 
L 5.421875 11.28125 
Q 10.40625 8.6875 15.234375 7.390625 
Q 20.0625 6.109375 24.8125 6.109375 
Q 31.15625 6.109375 34.5625 8.28125 
Q 37.984375 10.453125 37.984375 14.40625 
Q 37.984375 18.0625 35.515625 20.015625 
Q 33.0625 21.96875 24.703125 23.78125 
L 21.578125 24.515625 
Q 13.234375 26.265625 9.515625 29.90625 
Q 5.8125 33.546875 5.8125 39.890625 
Q 5.8125 47.609375 11.28125 51.796875 
Q 16.75 56 26.8125 56 
Q 31.78125 56 36.171875 55.265625 
Q 40.578125 54.546875 44.28125 53.078125 
z
" id="DejaVuSans-115"/>
      <path d="M 2.984375 54.6875 
L 12.5 54.6875 
L 29.59375 8.796875 
L 46.6875 54.6875 
L 56.203125 54.6875 
L 35.6875 0 
L 23.484375 0 
z
" id="DejaVuSans-118"/>
      <path d="M 9.421875 75.984375 
L 18.40625 75.984375 
L 18.40625 0 
L 9.421875 0 
z
" id="DejaVuSans-108"/>
     </defs>
     <g transform="translate(14.798438 334.293906)rotate(-90)scale(0.1 -0.1)">
      <use xlink:href="#DejaVuSans-109"/>
      <use x="97.412109" xlink:href="#DejaVuSans-101"/>
      <use x="158.935547" xlink:href="#DejaVuSans-100"/>
      <use x="222.412109" xlink:href="#DejaVuSans-105"/>
      <use x="250.195312" xlink:href="#DejaVuSans-97"/>
      <use x="311.474609" xlink:href="#DejaVuSans-110"/>
      <use x="374.853516" xlink:href="#DejaVuSans-95"/>
      <use x="424.853516" xlink:href="#DejaVuSans-104"/>
      <use x="488.232422" xlink:href="#DejaVuSans-111"/>
      <use x="549.414062" xlink:href="#DejaVuSans-117"/>
      <use x="612.792969" xlink:href="#DejaVuSans-115"/>
      <use x="664.892578" xlink:href="#DejaVuSans-101"/>
      <use x="726.416016" xlink:href="#DejaVuSans-95"/>
      <use x="776.416016" xlink:href="#DejaVuSans-118"/>
      <use x="835.595703" xlink:href="#DejaVuSans-97"/>
      <use x="896.875" xlink:href="#DejaVuSans-108"/>
      <use x="924.658203" xlink:href="#DejaVuSans-117"/>
      <use x="988.037109" xlink:href="#DejaVuSans-101"/>
     </g>
    </g>
   </g>
   <g id="line2d_13">
    <path clip-path="url(#pec12fc4a66)" d="M 115.468125 440.407742 
L 115.468125 168.251596 
" style="fill:none;stroke:#3d3d3d;stroke-linecap:square;stroke-width:1.5;"/>
   </g>
   <g id="line2d_14">
    <path clip-path="url(#pec12fc4a66)" d="M 115.468125 356.142743 
L 115.468125 278.698148 
" style="fill:none;stroke:#3d3d3d;stroke-linecap:square;stroke-width:4.5;"/>
   </g>
   <g id="line2d_15">
    <path clip-path="url(#pec12fc4a66)" d="M 213.741875 456.908721 
L 213.741875 272.611121 
" style="fill:none;stroke:#3d3d3d;stroke-linecap:square;stroke-width:1.5;"/>
   </g>
   <g id="line2d_16">
    <path clip-path="url(#pec12fc4a66)" d="M 213.741875 420.36822 
L 213.741875 360.543004 
" style="fill:none;stroke:#3d3d3d;stroke-linecap:square;stroke-width:4.5;"/>
   </g>
   <g id="line2d_17">
    <path clip-path="url(#pec12fc4a66)" d="M 312.015625 456.908721 
L 312.015625 106.721279 
" style="fill:none;stroke:#3d3d3d;stroke-linecap:square;stroke-width:1.5;"/>
   </g>
   <g id="line2d_18">
    <path clip-path="url(#pec12fc4a66)" d="M 312.015625 362.413115 
L 312.015625 234.475525 
" style="fill:none;stroke:#3d3d3d;stroke-linecap:square;stroke-width:4.5;"/>
   </g>
   <g id="line2d_19">
    <path clip-path="url(#pec12fc4a66)" d="M 410.289375 429.40709 
L 410.289375 120.948789 
" style="fill:none;stroke:#3d3d3d;stroke-linecap:square;stroke-width:1.5;"/>
   </g>
   <g id="line2d_20">
    <path clip-path="url(#pec12fc4a66)" d="M 410.289375 366.410019 
L 410.289375 264.103949 
" style="fill:none;stroke:#3d3d3d;stroke-linecap:square;stroke-width:4.5;"/>
   </g>
   <g id="line2d_21">
    <path clip-path="url(#pec12fc4a66)" d="M 469.253625 143.390121 
L 547.872625 143.390121 
" style="fill:none;stroke:#3d3d3d;stroke-linecap:square;stroke-width:1.5;"/>
   </g>
   <g id="patch_3">
    <path d="M 66.33125 541.311875 
L 66.33125 22.318125 
" style="fill:none;stroke:#000000;stroke-linecap:square;stroke-linejoin:miter;stroke-width:0.8;"/>
   </g>
   <g id="patch_4">
    <path d="M 66.33125 541.311875 
L 557.7 541.311875 
" style="fill:none;stroke:#000000;stroke-linecap:square;stroke-linejoin:miter;stroke-width:0.8;"/>
   </g>
   <g id="PathCollection_1">
    <defs>
     <path d="M 0 1.5 
C 0.397805 1.5 0.77937 1.341951 1.06066 1.06066 
C 1.341951 0.77937 1.5 0.397805 1.5 0 
C 1.5 -0.397805 1.341951 -0.77937 1.06066 -1.06066 
C 0.77937 -1.341951 0.397805 -1.5 0 -1.5 
C -0.397805 -1.5 -0.77937 -1.341951 -1.06066 -1.06066 
C -1.341951 -0.77937 -1.5 -0.397805 -1.5 0 
C -1.5 0.397805 -1.341951 0.77937 -1.06066 1.06066 
C -0.77937 1.341951 -0.397805 1.5 0 1.5 
z
" id="m31b6ce0755" style="stroke:#3d3d3d;"/>
    </defs>
    <g clip-path="url(#pec12fc4a66)">
     <use style="fill:#ffffff;stroke:#3d3d3d;" x="115.468125" xlink:href="#m31b6ce0755" y="322.407408"/>
    </g>
   </g>
   <g id="PathCollection_2">
    <g clip-path="url(#pec12fc4a66)">
     <use style="fill:#ffffff;stroke:#3d3d3d;" x="213.741875" xlink:href="#m31b6ce0755" y="394.058326"/>
    </g>
   </g>
   <g id="PathCollection_3">
    <g clip-path="url(#pec12fc4a66)">
     <use style="fill:#ffffff;stroke:#3d3d3d;" x="312.015625" xlink:href="#m31b6ce0755" y="313.240198"/>
    </g>
   </g>
   <g id="PathCollection_4">
    <g clip-path="url(#pec12fc4a66)">
     <use style="fill:#ffffff;stroke:#3d3d3d;" x="410.289375" xlink:href="#m31b6ce0755" y="309.866664"/>
    </g>
   </g>
   <g id="text_15">
    <!-- median_house_value distribution by ocean_proximity -->
    <defs>
     <path d="M 48.6875 27.296875 
Q 48.6875 37.203125 44.609375 42.84375 
Q 40.53125 48.484375 33.40625 48.484375 
Q 26.265625 48.484375 22.1875 42.84375 
Q 18.109375 37.203125 18.109375 27.296875 
Q 18.109375 17.390625 22.1875 11.75 
Q 26.265625 6.109375 33.40625 6.109375 
Q 40.53125 6.109375 44.609375 11.75 
Q 48.6875 17.390625 48.6875 27.296875 
z
M 18.109375 46.390625 
Q 20.953125 51.265625 25.265625 53.625 
Q 29.59375 56 35.59375 56 
Q 45.5625 56 51.78125 48.09375 
Q 58.015625 40.1875 58.015625 27.296875 
Q 58.015625 14.40625 51.78125 6.484375 
Q 45.5625 -1.421875 35.59375 -1.421875 
Q 29.59375 -1.421875 25.265625 0.953125 
Q 20.953125 3.328125 18.109375 8.203125 
L 18.109375 0 
L 9.078125 0 
L 9.078125 75.984375 
L 18.109375 75.984375 
z
" id="DejaVuSans-98"/>
    </defs>
    <g transform="translate(152.051875 16.318125)scale(0.12 -0.12)">
     <use xlink:href="#DejaVuSans-109"/>
     <use x="97.412109" xlink:href="#DejaVuSans-101"/>
     <use x="158.935547" xlink:href="#DejaVuSans-100"/>
     <use x="222.412109" xlink:href="#DejaVuSans-105"/>
     <use x="250.195312" xlink:href="#DejaVuSans-97"/>
     <use x="311.474609" xlink:href="#DejaVuSans-110"/>
     <use x="374.853516" xlink:href="#DejaVuSans-95"/>
     <use x="424.853516" xlink:href="#DejaVuSans-104"/>
     <use x="488.232422" xlink:href="#DejaVuSans-111"/>
     <use x="549.414062" xlink:href="#DejaVuSans-117"/>
     <use x="612.792969" xlink:href="#DejaVuSans-115"/>
     <use x="664.892578" xlink:href="#DejaVuSans-101"/>
     <use x="726.416016" xlink:href="#DejaVuSans-95"/>
     <use x="776.416016" xlink:href="#DejaVuSans-118"/>
     <use x="835.595703" xlink:href="#DejaVuSans-97"/>
     <use x="896.875" xlink:href="#DejaVuSans-108"/>
     <use x="924.658203" xlink:href="#DejaVuSans-117"/>
     <use x="988.037109" xlink:href="#DejaVuSans-101"/>
     <use x="1049.560547" xlink:href="#DejaVuSans-32"/>
     <use x="1081.347656" xlink:href="#DejaVuSans-100"/>
     <use x="1144.824219" xlink:href="#DejaVuSans-105"/>
     <use x="1172.607422" xlink:href="#DejaVuSans-115"/>
     <use x="1224.707031" xlink:href="#DejaVuSans-116"/>
     <use x="1263.916016" xlink:href="#DejaVuSans-114"/>
     <use x="1305.029297" xlink:href="#DejaVuSans-105"/>
     <use x="1332.8125" xlink:href="#DejaVuSans-98"/>
     <use x="1396.289062" xlink:href="#DejaVuSans-117"/>
     <use x="1459.667969" xlink:href="#DejaVuSans-116"/>
     <use x="1498.876953" xlink:href="#DejaVuSans-105"/>
     <use x="1526.660156" xlink:href="#DejaVuSans-111"/>
     <use x="1587.841797" xlink:href="#DejaVuSans-110"/>
     <use x="1651.220703" xlink:href="#DejaVuSans-32"/>
     <use x="1683.007812" xlink:href="#DejaVuSans-98"/>
     <use x="1746.484375" xlink:href="#DejaVuSans-121"/>
     <use x="1805.664062" xlink:href="#DejaVuSans-32"/>
     <use x="1837.451172" xlink:href="#DejaVuSans-111"/>
     <use x="1898.632812" xlink:href="#DejaVuSans-99"/>
     <use x="1953.613281" xlink:href="#DejaVuSans-101"/>
     <use x="2015.136719" xlink:href="#DejaVuSans-97"/>
     <use x="2076.416016" xlink:href="#DejaVuSans-110"/>
     <use x="2139.794922" xlink:href="#DejaVuSans-95"/>
     <use x="2189.794922" xlink:href="#DejaVuSans-112"/>
     <use x="2253.271484" xlink:href="#DejaVuSans-114"/>
     <use x="2294.353516" xlink:href="#DejaVuSans-111"/>
     <use x="2355.488281" xlink:href="#DejaVuSans-120"/>
     <use x="2414.667969" xlink:href="#DejaVuSans-105"/>
     <use x="2442.451172" xlink:href="#DejaVuSans-109"/>
     <use x="2539.863281" xlink:href="#DejaVuSans-105"/>
     <use x="2567.646484" xlink:href="#DejaVuSans-116"/>
     <use x="2606.855469" xlink:href="#DejaVuSans-121"/>
    </g>
   </g>
  </g>
 </g>
 <defs>
  <clipPath id="pec12fc4a66">
   <rect height="518.99375" width="491.36875" x="66.33125" y="22.318125"/>
  </clipPath>
 </defs>
</svg>
