<?xml version="1.0" encoding="utf-8" standalone="no"?>
<!DOCTYPE svg PUBLIC "-//W3C//DTD SVG 1.1//EN"
  "http://www.w3.org/Graphics/SVG/1.1/DTD/svg11.dtd">
<!-- Created with matplotlib (https://matplotlib.org/) -->
<svg height="579.14625pt" version="1.1" viewBox="0 0 568.4 579.14625" width="568.4pt" xmlns="http://www.w3.org/2000/svg" xmlns:xlink="http://www.w3.org/1999/xlink">
 <defs>
  <style type="text/css">
*{stroke-linecap:butt;stroke-linejoin:round;}
  </style>
 </defs>
 <g id="figure_1">
  <g id="patch_1">
   <path d="M 0 579.14625 
L 568.4 579.14625 
L 568.4 0 
L 0 0 
z
" style="fill:none;"/>
  </g>
  <g id="axes_1">
   <g id="patch_2">
    <path d="M 66.33125 541.311875 
L 557.7 541.311875 
L 557.7 22.318125 
L 66.33125 22.318125 
z
" style="fill:#ffffff;"/>
   </g>
   <g id="PolyCollection_1">
    <defs>
     <path d="M 127.781882 -65.759234 
L 127.722805 -65.759234 
L 127.707789 -70.188266 
L 127.686824 -74.617298 
L 127.658036 -79.046329 
L 127.618871 -83.475361 
L 127.565701 -87.904393 
L 127.493289 -92.333424 
L 127.394168 -96.762456 
L 127.258064 -101.191488 
L 127.071556 -105.620519 
L 126.818222 -110.049551 
L 126.479458 -114.478583 
L 126.036114 -118.907614 
L 125.470833 -123.336646 
L 124.770781 -127.765678 
L 123.93023 -132.194709 
L 122.952272 -136.623741 
L 121.849043 -141.052773 
L 120.640024 -145.481805 
L 119.348505 -149.910836 
L 117.996844 -154.339868 
L 116.601692 -158.7689 
L 115.170625 -163.197931 
L 113.701529 -167.626963 
L 112.185425 -172.055995 
L 110.612528 -176.485026 
L 108.980184 -180.914058 
L 107.300562 -185.34309 
L 105.605627 -189.772121 
L 103.947459 -194.201153 
L 102.393117 -198.630185 
L 101.014793 -203.059216 
L 99.877503 -207.488248 
L 99.02738 -211.91728 
L 98.483669 -216.346311 
L 98.236528 -220.775343 
L 98.251108 -225.204375 
L 98.476665 -229.633407 
L 98.858081 -234.062438 
L 99.346715 -238.49147 
L 99.907979 -242.920502 
L 100.524206 -247.349533 
L 101.192909 -251.778565 
L 101.921735 -256.207597 
L 102.72205 -260.636628 
L 103.603018 -265.06566 
L 104.567394 -269.494692 
L 105.60946 -273.923723 
L 106.714854 -278.352755 
L 107.861751 -282.781787 
L 109.022872 -287.210818 
L 110.168017 -291.63985 
L 111.266995 -296.068882 
L 112.292864 -300.497913 
L 113.22522 -304.926945 
L 114.053092 -309.355977 
L 114.776825 -313.785009 
L 115.408398 -318.21404 
L 115.969856 -322.643072 
L 116.489977 -327.072104 
L 116.999674 -331.501135 
L 117.526978 -335.930167 
L 118.092572 -340.359199 
L 118.706692 -344.78823 
L 119.367922 -349.217262 
L 120.06398 -353.646294 
L 120.77419 -358.075325 
L 121.473025 -362.504357 
L 122.134008 -366.933389 
L 122.733269 -371.36242 
L 123.252268 -375.791452 
L 123.679395 -380.220484 
L 124.010413 -384.649515 
L 124.247845 -389.078547 
L 124.399544 -393.507579 
L 124.476707 -397.936611 
L 124.491669 -402.365642 
L 124.455817 -406.794674 
L 124.378047 -411.223706 
L 124.264128 -415.652737 
L 124.117254 -420.081769 
L 123.939799 -424.510801 
L 123.735947 -428.939832 
L 123.514507 -433.368864 
L 123.290984 -437.797896 
L 123.088002 -442.226927 
L 122.933528 -446.655959 
L 122.856963 -451.084991 
L 122.88386 -455.514022 
L 123.030567 -459.943054 
L 123.300239 -464.372086 
L 123.681368 -468.801117 
L 124.149278 -473.230149 
L 124.670207 -477.659181 
L 125.206929 -482.088213 
L 125.724507 -486.517244 
L 126.19492 -490.946276 
L 126.599742 -495.375308 
L 126.930667 -499.804339 
L 127.18824 -504.233371 
L 128.316447 -504.233371 
L 128.316447 -504.233371 
L 128.57402 -499.804339 
L 128.904946 -495.375308 
L 129.309768 -490.946276 
L 129.780181 -486.517244 
L 130.297759 -482.088213 
L 130.834481 -477.659181 
L 131.35541 -473.230149 
L 131.823319 -468.801117 
L 132.204448 -464.372086 
L 132.47412 -459.943054 
L 132.620827 -455.514022 
L 132.647725 -451.084991 
L 132.57116 -446.655959 
L 132.416686 -442.226927 
L 132.213704 -437.797896 
L 131.990181 -433.368864 
L 131.768741 -428.939832 
L 131.564889 -424.510801 
L 131.387434 -420.081769 
L 131.24056 -415.652737 
L 131.126641 -411.223706 
L 131.04887 -406.794674 
L 131.013018 -402.365642 
L 131.02798 -397.936611 
L 131.105144 -393.507579 
L 131.256843 -389.078547 
L 131.494274 -384.649515 
L 131.825292 -380.220484 
L 132.252419 -375.791452 
L 132.771418 -371.36242 
L 133.370679 -366.933389 
L 134.031662 -362.504357 
L 134.730498 -358.075325 
L 135.440707 -353.646294 
L 136.136766 -349.217262 
L 136.797996 -344.78823 
L 137.412115 -340.359199 
L 137.977709 -335.930167 
L 138.505013 -331.501135 
L 139.01471 -327.072104 
L 139.534832 -322.643072 
L 140.09629 -318.21404 
L 140.727862 -313.785009 
L 141.451596 -309.355977 
L 142.279468 -304.926945 
L 143.211824 -300.497913 
L 144.237693 -296.068882 
L 145.336671 -291.63985 
L 146.481815 -287.210818 
L 147.642936 -282.781787 
L 148.789833 -278.352755 
L 149.895227 -273.923723 
L 150.937294 -269.494692 
L 151.90167 -265.06566 
L 152.782637 -260.636628 
L 153.582952 -256.207597 
L 154.311778 -251.778565 
L 154.980482 -247.349533 
L 155.596708 -242.920502 
L 156.157972 -238.49147 
L 156.646607 -234.062438 
L 157.028022 -229.633407 
L 157.253579 -225.204375 
L 157.26816 -220.775343 
L 157.021018 -216.346311 
L 156.477308 -211.91728 
L 155.627184 -207.488248 
L 154.489894 -203.059216 
L 153.111571 -198.630185 
L 151.557228 -194.201153 
L 149.899061 -189.772121 
L 148.204125 -185.34309 
L 146.524503 -180.914058 
L 144.89216 -176.485026 
L 143.319262 -172.055995 
L 141.803159 -167.626963 
L 140.334062 -163.197931 
L 138.902996 -158.7689 
L 137.507843 -154.339868 
L 136.156183 -149.910836 
L 134.864664 -145.481805 
L 133.655645 -141.052773 
L 132.552415 -136.623741 
L 131.574458 -132.194709 
L 130.733906 -127.765678 
L 130.033855 -123.336646 
L 129.468573 -118.907614 
L 129.02523 -114.478583 
L 128.686466 -110.049551 
L 128.433131 -105.620519 
L 128.246624 -101.191488 
L 128.11052 -96.762456 
L 128.011398 -92.333424 
L 127.938986 -87.904393 
L 127.885816 -83.475361 
L 127.846651 -79.046329 
L 127.817864 -74.617298 
L 127.796898 -70.188266 
L 127.781882 -65.759234 
z
" id="m9de9ca6ff7" style="stroke:#3d3d3d;stroke-width:1.5;"/>
    </defs>
    <g clip-path="url(#p71d718edd5)">
     <use style="fill:#3274a1;stroke:#3d3d3d;stroke-width:1.5;" x="0" xlink:href="#m9de9ca6ff7" y="579.14625"/>
    </g>
   </g>
   <g id="PolyCollection_2">
    <defs>
     <path d="M 251.144677 -70.649567 
L 250.044385 -70.649567 
L 249.863458 -75.322172 
L 249.63631 -79.994777 
L 249.355582 -84.667383 
L 249.014047 -89.339988 
L 248.60502 -94.012594 
L 248.122821 -98.685199 
L 247.563257 -103.357804 
L 246.924104 -108.03041 
L 246.20553 -112.703015 
L 245.410431 -117.375621 
L 244.544634 -122.048226 
L 243.61693 -126.720831 
L 242.638935 -131.393437 
L 241.624745 -136.066042 
L 240.590429 -140.738648 
L 239.553361 -145.411253 
L 238.531452 -150.083858 
L 237.54233 -154.756464 
L 236.602526 -159.429069 
L 235.726723 -164.101674 
L 234.927137 -168.77428 
L 234.213046 -173.446885 
L 233.590519 -178.119491 
L 233.062342 -182.792096 
L 232.628151 -187.464701 
L 232.284734 -192.137307 
L 232.026494 -196.809912 
L 231.846015 -201.482518 
L 231.734704 -206.155123 
L 231.683444 -210.827728 
L 231.683237 -215.500334 
L 231.725773 -220.172939 
L 231.803903 -224.845544 
L 231.91198 -229.51815 
L 232.046057 -234.190755 
L 232.20391 -238.863361 
L 232.38491 -243.535966 
L 232.589735 -248.208571 
L 232.819962 -252.881177 
L 233.077564 -257.553782 
L 233.364367 -262.226388 
L 233.681517 -266.898993 
L 234.029017 -271.571598 
L 234.405385 -276.244204 
L 234.80748 -280.916809 
L 235.230519 -285.589415 
L 235.668298 -290.26202 
L 236.113593 -294.934625 
L 236.558709 -299.607231 
L 236.996108 -304.279836 
L 237.419055 -308.952441 
L 237.822199 -313.625047 
L 238.202012 -318.297652 
L 238.557043 -322.970258 
L 238.887938 -327.642863 
L 239.197226 -332.315468 
L 239.488891 -336.988074 
L 239.767782 -341.660679 
L 240.038915 -346.333285 
L 240.306768 -351.00589 
L 240.574639 -355.678495 
L 240.844144 -360.351101 
L 241.114925 -365.023706 
L 241.384585 -369.696311 
L 241.648887 -374.368917 
L 241.902174 -379.041522 
L 242.137986 -383.714128 
L 242.349797 -388.386733 
L 242.531813 -393.059338 
L 242.679735 -397.731944 
L 242.791416 -402.404549 
L 242.86734 -407.077155 
L 242.91088 -411.74976 
L 242.928288 -416.422365 
L 242.92843 -421.094971 
L 242.922266 -425.767576 
L 242.922126 -430.440181 
L 242.940844 -435.112787 
L 242.990814 -439.785392 
L 243.083066 -444.457998 
L 243.226427 -449.130603 
L 243.426857 -453.803208 
L 243.687005 -458.475814 
L 244.006029 -463.148419 
L 244.379692 -467.821025 
L 244.800716 -472.49363 
L 245.259347 -477.166235 
L 245.744092 -481.838841 
L 246.242536 -486.511446 
L 246.742173 -491.184052 
L 247.231173 -495.856657 
L 247.699036 -500.529262 
L 248.137075 -505.201868 
L 248.538717 -509.874473 
L 248.899608 -514.547078 
L 249.217561 -519.219684 
L 249.492342 -523.892289 
L 249.725373 -528.564895 
L 249.919363 -533.2375 
L 251.269699 -533.2375 
L 251.269699 -533.2375 
L 251.463689 -528.564895 
L 251.69672 -523.892289 
L 251.971502 -519.219684 
L 252.289454 -514.547078 
L 252.650346 -509.874473 
L 253.051987 -505.201868 
L 253.490027 -500.529262 
L 253.95789 -495.856657 
L 254.44689 -491.184052 
L 254.946526 -486.511446 
L 255.44497 -481.838841 
L 255.929716 -477.166235 
L 256.388347 -472.49363 
L 256.80937 -467.821025 
L 257.183034 -463.148419 
L 257.502058 -458.475814 
L 257.762205 -453.803208 
L 257.962635 -449.130603 
L 258.105997 -444.457998 
L 258.198249 -439.785392 
L 258.248219 -435.112787 
L 258.266937 -430.440181 
L 258.266797 -425.767576 
L 258.260632 -421.094971 
L 258.260774 -416.422365 
L 258.278183 -411.74976 
L 258.321722 -407.077155 
L 258.397646 -402.404549 
L 258.509327 -397.731944 
L 258.657249 -393.059338 
L 258.839266 -388.386733 
L 259.051077 -383.714128 
L 259.286888 -379.041522 
L 259.540176 -374.368917 
L 259.804478 -369.696311 
L 260.074138 -365.023706 
L 260.344918 -360.351101 
L 260.614424 -355.678495 
L 260.882294 -351.00589 
L 261.150148 -346.333285 
L 261.42128 -341.660679 
L 261.700171 -336.988074 
L 261.991837 -332.315468 
L 262.301125 -327.642863 
L 262.632019 -322.970258 
L 262.987051 -318.297652 
L 263.366864 -313.625047 
L 263.770007 -308.952441 
L 264.192955 -304.279836 
L 264.630354 -299.607231 
L 265.075469 -294.934625 
L 265.520765 -290.26202 
L 265.958544 -285.589415 
L 266.381583 -280.916809 
L 266.783677 -276.244204 
L 267.160045 -271.571598 
L 267.507545 -266.898993 
L 267.824695 -262.226388 
L 268.111498 -257.553782 
L 268.369101 -252.881177 
L 268.599327 -248.208571 
L 268.804153 -243.535966 
L 268.985152 -238.863361 
L 269.143005 -234.190755 
L 269.277082 -229.51815 
L 269.38516 -224.845544 
L 269.463289 -220.172939 
L 269.505825 -215.500334 
L 269.505618 -210.827728 
L 269.454359 -206.155123 
L 269.343047 -201.482518 
L 269.162569 -196.809912 
L 268.904328 -192.137307 
L 268.560911 -187.464701 
L 268.12672 -182.792096 
L 267.598544 -178.119491 
L 266.976016 -173.446885 
L 266.261925 -168.77428 
L 265.462339 -164.101674 
L 264.586537 -159.429069 
L 263.646732 -154.756464 
L 262.65761 -150.083858 
L 261.635702 -145.411253 
L 260.598633 -140.738648 
L 259.564318 -136.066042 
L 258.550128 -131.393437 
L 257.572132 -126.720831 
L 256.644429 -122.048226 
L 255.778631 -117.375621 
L 254.983532 -112.703015 
L 254.264958 -108.03041 
L 253.625805 -103.357804 
L 253.066242 -98.685199 
L 252.584043 -94.012594 
L 252.175016 -89.339988 
L 251.833481 -84.667383 
L 251.552752 -79.994777 
L 251.325604 -75.322172 
L 251.144677 -70.649567 
z
" id="m64ad961537" style="stroke:#3d3d3d;stroke-width:1.5;"/>
    </defs>
    <g clip-path="url(#p71d718edd5)">
     <use style="fill:#e1812c;stroke:#3d3d3d;stroke-width:1.5;" x="0" xlink:href="#m64ad961537" y="579.14625"/>
    </g>
   </g>
   <g id="PolyCollection_3">
    <defs>
     <path d="M 373.8143 -78.87407 
L 373.059137 -78.87407 
L 372.732169 -83.063206 
L 372.183877 -87.252343 
L 371.312242 -91.44148 
L 369.998687 -95.630617 
L 368.122349 -99.819754 
L 365.582187 -104.008891 
L 362.323784 -108.198028 
L 358.364687 -112.387164 
L 353.810544 -116.576301 
L 348.85525 -120.765438 
L 343.762181 -124.954575 
L 338.829241 -129.143712 
L 334.345769 -133.332849 
L 330.552151 -137.521985 
L 327.611947 -141.711122 
L 325.601885 -145.900259 
L 324.519083 -150.089396 
L 324.299844 -154.278533 
L 324.842197 -158.46767 
L 326.025627 -162.656807 
L 327.724877 -166.845943 
L 329.818447 -171.03508 
L 332.194337 -175.224217 
L 334.755192 -179.413354 
L 337.422857 -183.602491 
L 340.140452 -187.791628 
L 342.869734 -191.980765 
L 345.58327 -196.169901 
L 348.253644 -200.359038 
L 350.843967 -204.548175 
L 353.303913 -208.737312 
L 355.573514 -212.926449 
L 357.5938 -217.115586 
L 359.320677 -221.304723 
L 360.737209 -225.493859 
L 361.860013 -229.682996 
L 362.737387 -233.872133 
L 363.439369 -238.06127 
L 364.042365 -242.250407 
L 364.612648 -246.439544 
L 365.193393 -250.628681 
L 365.798806 -254.817817 
L 366.416609 -259.006954 
L 367.017458 -263.196091 
L 367.567793 -267.385228 
L 368.041838 -271.574365 
L 368.429289 -275.763502 
L 368.737035 -279.952639 
L 368.985377 -284.141775 
L 369.200884 -288.330912 
L 369.408753 -292.520049 
L 369.627188 -296.709186 
L 369.865151 -300.898323 
L 370.123292 -305.08746 
L 370.396635 -309.276597 
L 370.677207 -313.465733 
L 370.955362 -317.65487 
L 371.219761 -321.844007 
L 371.456978 -326.033144 
L 371.652055 -330.222281 
L 371.790696 -334.411418 
L 371.862776 -338.600555 
L 371.86592 -342.789691 
L 371.807736 -346.978828 
L 371.705775 -351.167965 
L 371.585133 -355.357102 
L 371.474355 -359.546239 
L 371.400609 -363.735376 
L 371.385114 -367.924513 
L 371.439592 -372.113649 
L 371.564347 -376.302786 
L 371.748382 -380.491923 
L 371.971663 -384.68106 
L 372.20917 -388.870197 
L 372.43591 -393.059334 
L 372.631678 -397.248471 
L 372.78442 -401.437607 
L 372.891395 -405.626744 
L 372.958022 -409.815881 
L 372.994928 -414.005018 
L 373.014197 -418.194155 
L 373.025959 -422.383292 
L 373.036264 -426.572429 
L 373.04673 -430.761565 
L 373.055817 -434.950702 
L 373.061059 -439.139839 
L 373.061285 -443.328976 
L 373.057945 -447.518113 
L 373.055072 -451.70725 
L 373.058002 -455.896387 
L 373.071476 -460.085523 
L 373.097943 -464.27466 
L 373.136734 -468.463797 
L 373.184353 -472.652934 
L 373.235632 -476.842071 
L 373.285243 -481.031208 
L 373.328969 -485.220344 
L 373.364389 -489.409481 
L 373.390919 -493.598618 
L 373.482519 -493.598618 
L 373.482519 -493.598618 
L 373.509049 -489.409481 
L 373.544469 -485.220344 
L 373.588194 -481.031208 
L 373.637805 -476.842071 
L 373.689085 -472.652934 
L 373.736703 -468.463797 
L 373.775495 -464.27466 
L 373.801962 -460.085523 
L 373.815436 -455.896387 
L 373.818366 -451.70725 
L 373.815493 -447.518113 
L 373.812152 -443.328976 
L 373.812378 -439.139839 
L 373.81762 -434.950702 
L 373.826707 -430.761565 
L 373.837174 -426.572429 
L 373.847479 -422.383292 
L 373.85924 -418.194155 
L 373.878509 -414.005018 
L 373.915415 -409.815881 
L 373.982042 -405.626744 
L 374.089017 -401.437607 
L 374.241759 -397.248471 
L 374.437528 -393.059334 
L 374.664267 -388.870197 
L 374.901775 -384.68106 
L 375.125055 -380.491923 
L 375.309091 -376.302786 
L 375.433845 -372.113649 
L 375.488323 -367.924513 
L 375.472829 -363.735376 
L 375.399083 -359.546239 
L 375.288304 -355.357102 
L 375.167663 -351.167965 
L 375.065701 -346.978828 
L 375.007517 -342.789691 
L 375.010661 -338.600555 
L 375.082741 -334.411418 
L 375.221383 -330.222281 
L 375.416459 -326.033144 
L 375.653677 -321.844007 
L 375.918075 -317.65487 
L 376.19623 -313.465733 
L 376.476802 -309.276597 
L 376.750145 -305.08746 
L 377.008286 -300.898323 
L 377.246249 -296.709186 
L 377.464684 -292.520049 
L 377.672553 -288.330912 
L 377.88806 -284.141775 
L 378.136402 -279.952639 
L 378.444149 -275.763502 
L 378.8316 -271.574365 
L 379.305644 -267.385228 
L 379.855979 -263.196091 
L 380.456829 -259.006954 
L 381.074631 -254.817817 
L 381.680044 -250.628681 
L 382.26079 -246.439544 
L 382.831072 -242.250407 
L 383.434068 -238.06127 
L 384.136051 -233.872133 
L 385.013425 -229.682996 
L 386.136229 -225.493859 
L 387.552761 -221.304723 
L 389.279637 -217.115586 
L 391.299923 -212.926449 
L 393.569524 -208.737312 
L 396.02947 -204.548175 
L 398.619793 -200.359038 
L 401.290168 -196.169901 
L 404.003703 -191.980765 
L 406.732986 -187.791628 
L 409.450581 -183.602491 
L 412.118245 -179.413354 
L 414.6791 -175.224217 
L 417.054991 -171.03508 
L 419.14856 -166.845943 
L 420.847811 -162.656807 
L 422.03124 -158.46767 
L 422.573594 -154.278533 
L 422.354354 -150.089396 
L 421.271552 -145.900259 
L 419.26149 -141.711122 
L 416.321287 -137.521985 
L 412.527669 -133.332849 
L 408.044197 -129.143712 
L 403.111257 -124.954575 
L 398.018188 -120.765438 
L 393.062893 -116.576301 
L 388.508751 -112.387164 
L 384.549654 -108.198028 
L 381.291251 -104.008891 
L 378.751089 -99.819754 
L 376.874751 -95.630617 
L 375.561196 -91.44148 
L 374.68956 -87.252343 
L 374.141269 -83.063206 
L 373.8143 -78.87407 
z
" id="mc0be431cc8" style="stroke:#3d3d3d;stroke-width:1.5;"/>
    </defs>
    <g clip-path="url(#p71d718edd5)">
     <use style="fill:#3a923a;stroke:#3d3d3d;stroke-width:1.5;" x="0" xlink:href="#mc0be431cc8" y="579.14625"/>
    </g>
   </g>
   <g id="PolyCollection_4">
    <defs>
     <path d="M 496.638685 -61.425 
L 495.919128 -61.425 
L 495.787343 -66.175404 
L 495.617232 -70.925809 
L 495.401299 -75.676213 
L 495.131748 -80.426618 
L 494.800828 -85.177022 
L 494.401254 -89.927427 
L 493.926687 -94.677831 
L 493.372239 -99.428236 
L 492.734958 -104.17864 
L 492.014257 -108.929045 
L 491.212248 -113.679449 
L 490.333924 -118.429854 
L 489.387192 -123.180258 
L 488.382719 -127.930663 
L 487.333616 -132.681067 
L 486.254973 -137.431471 
L 485.163271 -142.181876 
L 484.075741 -146.93228 
L 483.009675 -151.682685 
L 481.981781 -156.433089 
L 481.007578 -161.183494 
L 480.100882 -165.933898 
L 479.27341 -170.684303 
L 478.534483 -175.434707 
L 477.890873 -180.185112 
L 477.346754 -184.935516 
L 476.903787 -189.685921 
L 476.561307 -194.436325 
L 476.316611 -199.18673 
L 476.165329 -203.937134 
L 476.101843 -208.687539 
L 476.119735 -213.437943 
L 476.212211 -218.188347 
L 476.372476 -222.938752 
L 476.594016 -227.689156 
L 476.870759 -232.439561 
L 477.197116 -237.189965 
L 477.567905 -241.94037 
L 477.978177 -246.690774 
L 478.422997 -251.441179 
L 478.897222 -256.191583 
L 479.395326 -260.941988 
L 479.91132 -265.692392 
L 480.438781 -270.442797 
L 480.971004 -275.193201 
L 481.501256 -279.943606 
L 482.023103 -284.69401 
L 482.530756 -289.444414 
L 483.019394 -294.194819 
L 483.485418 -298.945223 
L 483.926604 -303.695628 
L 484.342129 -308.446032 
L 484.732493 -313.196437 
L 485.099325 -317.946841 
L 485.44512 -322.697246 
L 485.77293 -327.44765 
L 486.086036 -332.198055 
L 486.387631 -336.948459 
L 486.680532 -341.698864 
L 486.96692 -346.449268 
L 487.248127 -351.199673 
L 487.524465 -355.950077 
L 487.795101 -360.700481 
L 488.057988 -365.450886 
L 488.309867 -370.20129 
L 488.546367 -374.951695 
L 488.762206 -379.702099 
L 488.951524 -384.452504 
L 489.108346 -389.202908 
L 489.227164 -393.953313 
L 489.303603 -398.703717 
L 489.335117 -403.454122 
L 489.321645 -408.204526 
L 489.266139 -412.954931 
L 489.174884 -417.705335 
L 489.057534 -422.45574 
L 488.926814 -427.206144 
L 488.797894 -431.956548 
L 488.687432 -436.706953 
L 488.612398 -441.457357 
L 488.588757 -446.207762 
L 488.63016 -450.958166 
L 488.746785 -455.708571 
L 488.944445 -460.458975 
L 489.224081 -465.20938 
L 489.581678 -469.959784 
L 490.008628 -474.710189 
L 490.492472 -479.460593 
L 491.017951 -484.210998 
L 491.568234 -488.961402 
L 492.126191 -493.711807 
L 492.675576 -498.462211 
L 493.202029 -503.212616 
L 493.693802 -507.96302 
L 494.142182 -512.713424 
L 494.541617 -517.463829 
L 494.889565 -522.214233 
L 495.186146 -526.964638 
L 495.433645 -531.715042 
L 497.124168 -531.715042 
L 497.124168 -531.715042 
L 497.371666 -526.964638 
L 497.668248 -522.214233 
L 498.016196 -517.463829 
L 498.41563 -512.713424 
L 498.86401 -507.96302 
L 499.355783 -503.212616 
L 499.882237 -498.462211 
L 500.431622 -493.711807 
L 500.989578 -488.961402 
L 501.539861 -484.210998 
L 502.06534 -479.460593 
L 502.549184 -474.710189 
L 502.976134 -469.959784 
L 503.333732 -465.20938 
L 503.613368 -460.458975 
L 503.811028 -455.708571 
L 503.927652 -450.958166 
L 503.969055 -446.207762 
L 503.945414 -441.457357 
L 503.87038 -436.706953 
L 503.759919 -431.956548 
L 503.630998 -427.206144 
L 503.500279 -422.45574 
L 503.382928 -417.705335 
L 503.291673 -412.954931 
L 503.236168 -408.204526 
L 503.222696 -403.454122 
L 503.25421 -398.703717 
L 503.330649 -393.953313 
L 503.449467 -389.202908 
L 503.606289 -384.452504 
L 503.795606 -379.702099 
L 504.011445 -374.951695 
L 504.247945 -370.20129 
L 504.499825 -365.450886 
L 504.762711 -360.700481 
L 505.033348 -355.950077 
L 505.309686 -351.199673 
L 505.590893 -346.449268 
L 505.87728 -341.698864 
L 506.170181 -336.948459 
L 506.471777 -332.198055 
L 506.784883 -327.44765 
L 507.112693 -322.697246 
L 507.458488 -317.946841 
L 507.82532 -313.196437 
L 508.215683 -308.446032 
L 508.631209 -303.695628 
L 509.072394 -298.945223 
L 509.538419 -294.194819 
L 510.027057 -289.444414 
L 510.53471 -284.69401 
L 511.056557 -279.943606 
L 511.586809 -275.193201 
L 512.119032 -270.442797 
L 512.646492 -265.692392 
L 513.162487 -260.941988 
L 513.660591 -256.191583 
L 514.134815 -251.441179 
L 514.579635 -246.690774 
L 514.989908 -241.94037 
L 515.360697 -237.189965 
L 515.687054 -232.439561 
L 515.963796 -227.689156 
L 516.185336 -222.938752 
L 516.345602 -218.188347 
L 516.438078 -213.437943 
L 516.45597 -208.687539 
L 516.392484 -203.937134 
L 516.241201 -199.18673 
L 515.996506 -194.436325 
L 515.654026 -189.685921 
L 515.211059 -184.935516 
L 514.66694 -180.185112 
L 514.023329 -175.434707 
L 513.284403 -170.684303 
L 512.45693 -165.933898 
L 511.550235 -161.183494 
L 510.576031 -156.433089 
L 509.548137 -151.682685 
L 508.482072 -146.93228 
L 507.394541 -142.181876 
L 506.30284 -137.431471 
L 505.224196 -132.681067 
L 504.175094 -127.930663 
L 503.17062 -123.180258 
L 502.223888 -118.429854 
L 501.345564 -113.679449 
L 500.543555 -108.929045 
L 499.822855 -104.17864 
L 499.185573 -99.428236 
L 498.631125 -94.677831 
L 498.156558 -89.927427 
L 497.756984 -85.177022 
L 497.426064 -80.426618 
L 497.156514 -75.676213 
L 496.940581 -70.925809 
L 496.770469 -66.175404 
L 496.638685 -61.425 
z
" id="m65859faece" style="stroke:#3d3d3d;stroke-width:1.5;"/>
    </defs>
    <g clip-path="url(#p71d718edd5)">
     <use style="fill:#c03d3e;stroke:#3d3d3d;stroke-width:1.5;" x="0" xlink:href="#m65859faece" y="579.14625"/>
    </g>
   </g>
   <g id="matplotlib.axis_1">
    <g id="xtick_1">
     <g id="line2d_1">
      <defs>
       <path d="M 0 0 
L 0 3.5 
" id="m12c93405c1" style="stroke:#000000;stroke-width:0.8;"/>
      </defs>
      <g>
       <use style="stroke:#000000;stroke-width:0.8;" x="127.752344" xlink:href="#m12c93405c1" y="541.311875"/>
      </g>
     </g>
     <g id="text_1">
      <!-- &lt;1H OCEAN -->
      <defs>
       <path d="M 73.1875 49.21875 
L 22.796875 31.296875 
L 73.1875 13.484375 
L 73.1875 4.59375 
L 10.59375 27.296875 
L 10.59375 35.40625 
L 73.1875 58.109375 
z
" id="DejaVuSans-60"/>
       <path d="M 12.40625 8.296875 
L 28.515625 8.296875 
L 28.515625 63.921875 
L 10.984375 60.40625 
L 10.984375 69.390625 
L 28.421875 72.90625 
L 38.28125 72.90625 
L 38.28125 8.296875 
L 54.390625 8.296875 
L 54.390625 0 
L 12.40625 0 
z
" id="DejaVuSans-49"/>
       <path d="M 9.8125 72.90625 
L 19.671875 72.90625 
L 19.671875 43.015625 
L 55.515625 43.015625 
L 55.515625 72.90625 
L 65.375 72.90625 
L 65.375 0 
L 55.515625 0 
L 55.515625 34.71875 
L 19.671875 34.71875 
L 19.671875 0 
L 9.8125 0 
z
" id="DejaVuSans-72"/>
       <path id="DejaVuSans-32"/>
       <path d="M 39.40625 66.21875 
Q 28.65625 66.21875 22.328125 58.203125 
Q 16.015625 50.203125 16.015625 36.375 
Q 16.015625 22.609375 22.328125 14.59375 
Q 28.65625 6.59375 39.40625 6.59375 
Q 50.140625 6.59375 56.421875 14.59375 
Q 62.703125 22.609375 62.703125 36.375 
Q 62.703125 50.203125 56.421875 58.203125 
Q 50.140625 66.21875 39.40625 66.21875 
z
M 39.40625 74.21875 
Q 54.734375 74.21875 63.90625 63.9375 
Q 73.09375 53.65625 73.09375 36.375 
Q 73.09375 19.140625 63.90625 8.859375 
Q 54.734375 -1.421875 39.40625 -1.421875 
Q 24.03125 -1.421875 14.8125 8.828125 
Q 5.609375 19.09375 5.609375 36.375 
Q 5.609375 53.65625 14.8125 63.9375 
Q 24.03125 74.21875 39.40625 74.21875 
z
" id="DejaVuSans-79"/>
       <path d="M 64.40625 67.28125 
L 64.40625 56.890625 
Q 59.421875 61.53125 53.78125 63.8125 
Q 48.140625 66.109375 41.796875 66.109375 
Q 29.296875 66.109375 22.65625 58.46875 
Q 16.015625 50.828125 16.015625 36.375 
Q 16.015625 21.96875 22.65625 14.328125 
Q 29.296875 6.6875 41.796875 6.6875 
Q 48.140625 6.6875 53.78125 8.984375 
Q 59.421875 11.28125 64.40625 15.921875 
L 64.40625 5.609375 
Q 59.234375 2.09375 53.4375 0.328125 
Q 47.65625 -1.421875 41.21875 -1.421875 
Q 24.65625 -1.421875 15.125 8.703125 
Q 5.609375 18.84375 5.609375 36.375 
Q 5.609375 53.953125 15.125 64.078125 
Q 24.65625 74.21875 41.21875 74.21875 
Q 47.75 74.21875 53.53125 72.484375 
Q 59.328125 70.75 64.40625 67.28125 
z
" id="DejaVuSans-67"/>
       <path d="M 9.8125 72.90625 
L 55.90625 72.90625 
L 55.90625 64.59375 
L 19.671875 64.59375 
L 19.671875 43.015625 
L 54.390625 43.015625 
L 54.390625 34.71875 
L 19.671875 34.71875 
L 19.671875 8.296875 
L 56.78125 8.296875 
L 56.78125 0 
L 9.8125 0 
z
" id="DejaVuSans-69"/>
       <path d="M 34.1875 63.1875 
L 20.796875 26.90625 
L 47.609375 26.90625 
z
M 28.609375 72.90625 
L 39.796875 72.90625 
L 67.578125 0 
L 57.328125 0 
L 50.6875 18.703125 
L 17.828125 18.703125 
L 11.1875 0 
L 0.78125 0 
z
" id="DejaVuSans-65"/>
       <path d="M 9.8125 72.90625 
L 23.09375 72.90625 
L 55.421875 11.921875 
L 55.421875 72.90625 
L 64.984375 72.90625 
L 64.984375 0 
L 51.703125 0 
L 19.390625 60.984375 
L 19.390625 0 
L 9.8125 0 
z
" id="DejaVuSans-78"/>
      </defs>
      <g transform="translate(97.284375 555.910312)scale(0.1 -0.1)">
       <use xlink:href="#DejaVuSans-60"/>
       <use x="83.789062" xlink:href="#DejaVuSans-49"/>
       <use x="147.412109" xlink:href="#DejaVuSans-72"/>
       <use x="222.607422" xlink:href="#DejaVuSans-32"/>
       <use x="254.394531" xlink:href="#DejaVuSans-79"/>
       <use x="333.105469" xlink:href="#DejaVuSans-67"/>
       <use x="402.929688" xlink:href="#DejaVuSans-69"/>
       <use x="466.113281" xlink:href="#DejaVuSans-65"/>
       <use x="534.521484" xlink:href="#DejaVuSans-78"/>
      </g>
     </g>
    </g>
    <g id="xtick_2">
     <g id="line2d_2">
      <g>
       <use style="stroke:#000000;stroke-width:0.8;" x="250.594531" xlink:href="#m12c93405c1" y="541.311875"/>
      </g>
     </g>
     <g id="text_2">
      <!-- NEAR BAY -->
      <defs>
       <path d="M 44.390625 34.1875 
Q 47.5625 33.109375 50.5625 29.59375 
Q 53.5625 26.078125 56.59375 19.921875 
L 66.609375 0 
L 56 0 
L 46.6875 18.703125 
Q 43.0625 26.03125 39.671875 28.421875 
Q 36.28125 30.8125 30.421875 30.8125 
L 19.671875 30.8125 
L 19.671875 0 
L 9.8125 0 
L 9.8125 72.90625 
L 32.078125 72.90625 
Q 44.578125 72.90625 50.734375 67.671875 
Q 56.890625 62.453125 56.890625 51.90625 
Q 56.890625 45.015625 53.6875 40.46875 
Q 50.484375 35.9375 44.390625 34.1875 
z
M 19.671875 64.796875 
L 19.671875 38.921875 
L 32.078125 38.921875 
Q 39.203125 38.921875 42.84375 42.21875 
Q 46.484375 45.515625 46.484375 51.90625 
Q 46.484375 58.296875 42.84375 61.546875 
Q 39.203125 64.796875 32.078125 64.796875 
z
" id="DejaVuSans-82"/>
       <path d="M 19.671875 34.8125 
L 19.671875 8.109375 
L 35.5 8.109375 
Q 43.453125 8.109375 47.28125 11.40625 
Q 51.125 14.703125 51.125 21.484375 
Q 51.125 28.328125 47.28125 31.5625 
Q 43.453125 34.8125 35.5 34.8125 
z
M 19.671875 64.796875 
L 19.671875 42.828125 
L 34.28125 42.828125 
Q 41.5 42.828125 45.03125 45.53125 
Q 48.578125 48.25 48.578125 53.8125 
Q 48.578125 59.328125 45.03125 62.0625 
Q 41.5 64.796875 34.28125 64.796875 
z
M 9.8125 72.90625 
L 35.015625 72.90625 
Q 46.296875 72.90625 52.390625 68.21875 
Q 58.5 63.53125 58.5 54.890625 
Q 58.5 48.1875 55.375 44.234375 
Q 52.25 40.28125 46.1875 39.3125 
Q 53.46875 37.75 57.5 32.78125 
Q 61.53125 27.828125 61.53125 20.40625 
Q 61.53125 10.640625 54.890625 5.3125 
Q 48.25 0 35.984375 0 
L 9.8125 0 
z
" id="DejaVuSans-66"/>
       <path d="M -0.203125 72.90625 
L 10.40625 72.90625 
L 30.609375 42.921875 
L 50.6875 72.90625 
L 61.28125 72.90625 
L 35.5 34.71875 
L 35.5 0 
L 25.59375 0 
L 25.59375 34.71875 
z
" id="DejaVuSans-89"/>
      </defs>
      <g transform="translate(225.311719 555.910312)scale(0.1 -0.1)">
       <use xlink:href="#DejaVuSans-78"/>
       <use x="74.804688" xlink:href="#DejaVuSans-69"/>
       <use x="137.988281" xlink:href="#DejaVuSans-65"/>
       <use x="206.396484" xlink:href="#DejaVuSans-82"/>
       <use x="275.878906" xlink:href="#DejaVuSans-32"/>
       <use x="307.666016" xlink:href="#DejaVuSans-66"/>
       <use x="376.269531" xlink:href="#DejaVuSans-65"/>
       <use x="444.568359" xlink:href="#DejaVuSans-89"/>
      </g>
     </g>
    </g>
    <g id="xtick_3">
     <g id="line2d_3">
      <g>
       <use style="stroke:#000000;stroke-width:0.8;" x="373.436719" xlink:href="#m12c93405c1" y="541.311875"/>
      </g>
     </g>
     <g id="text_3">
      <!-- INLAND -->
      <defs>
       <path d="M 9.8125 72.90625 
L 19.671875 72.90625 
L 19.671875 0 
L 9.8125 0 
z
" id="DejaVuSans-73"/>
       <path d="M 9.8125 72.90625 
L 19.671875 72.90625 
L 19.671875 8.296875 
L 55.171875 8.296875 
L 55.171875 0 
L 9.8125 0 
z
" id="DejaVuSans-76"/>
       <path d="M 19.671875 64.796875 
L 19.671875 8.109375 
L 31.59375 8.109375 
Q 46.6875 8.109375 53.6875 14.9375 
Q 60.6875 21.78125 60.6875 36.53125 
Q 60.6875 51.171875 53.6875 57.984375 
Q 46.6875 64.796875 31.59375 64.796875 
z
M 9.8125 72.90625 
L 30.078125 72.90625 
Q 51.265625 72.90625 61.171875 64.09375 
Q 71.09375 55.28125 71.09375 36.53125 
Q 71.09375 17.671875 61.125 8.828125 
Q 51.171875 0 30.078125 0 
L 9.8125 0 
z
" id="DejaVuSans-68"/>
      </defs>
      <g transform="translate(354.422656 555.910312)scale(0.1 -0.1)">
       <use xlink:href="#DejaVuSans-73"/>
       <use x="29.492188" xlink:href="#DejaVuSans-78"/>
       <use x="104.296875" xlink:href="#DejaVuSans-76"/>
       <use x="160.041016" xlink:href="#DejaVuSans-65"/>
       <use x="228.449219" xlink:href="#DejaVuSans-78"/>
       <use x="303.253906" xlink:href="#DejaVuSans-68"/>
      </g>
     </g>
    </g>
    <g id="xtick_4">
     <g id="line2d_4">
      <g>
       <use style="stroke:#000000;stroke-width:0.8;" x="496.278906" xlink:href="#m12c93405c1" y="541.311875"/>
      </g>
     </g>
     <g id="text_4">
      <!-- NEAR OCEAN -->
      <g transform="translate(463.147656 555.910312)scale(0.1 -0.1)">
       <use xlink:href="#DejaVuSans-78"/>
       <use x="74.804688" xlink:href="#DejaVuSans-69"/>
       <use x="137.988281" xlink:href="#DejaVuSans-65"/>
       <use x="206.396484" xlink:href="#DejaVuSans-82"/>
       <use x="275.878906" xlink:href="#DejaVuSans-32"/>
       <use x="307.666016" xlink:href="#DejaVuSans-79"/>
       <use x="386.376953" xlink:href="#DejaVuSans-67"/>
       <use x="456.201172" xlink:href="#DejaVuSans-69"/>
       <use x="519.384766" xlink:href="#DejaVuSans-65"/>
       <use x="587.792969" xlink:href="#DejaVuSans-78"/>
      </g>
     </g>
    </g>
    <g id="text_5">
     <!-- ocean_proximity -->
     <defs>
      <path d="M 30.609375 48.390625 
Q 23.390625 48.390625 19.1875 42.75 
Q 14.984375 37.109375 14.984375 27.296875 
Q 14.984375 17.484375 19.15625 11.84375 
Q 23.34375 6.203125 30.609375 6.203125 
Q 37.796875 6.203125 41.984375 11.859375 
Q 46.1875 17.53125 46.1875 27.296875 
Q 46.1875 37.015625 41.984375 42.703125 
Q 37.796875 48.390625 30.609375 48.390625 
z
M 30.609375 56 
Q 42.328125 56 49.015625 48.375 
Q 55.71875 40.765625 55.71875 27.296875 
Q 55.71875 13.875 49.015625 6.21875 
Q 42.328125 -1.421875 30.609375 -1.421875 
Q 18.84375 -1.421875 12.171875 6.21875 
Q 5.515625 13.875 5.515625 27.296875 
Q 5.515625 40.765625 12.171875 48.375 
Q 18.84375 56 30.609375 56 
z
" id="DejaVuSans-111"/>
      <path d="M 48.78125 52.59375 
L 48.78125 44.1875 
Q 44.96875 46.296875 41.140625 47.34375 
Q 37.3125 48.390625 33.40625 48.390625 
Q 24.65625 48.390625 19.8125 42.84375 
Q 14.984375 37.3125 14.984375 27.296875 
Q 14.984375 17.28125 19.8125 11.734375 
Q 24.65625 6.203125 33.40625 6.203125 
Q 37.3125 6.203125 41.140625 7.25 
Q 44.96875 8.296875 48.78125 10.40625 
L 48.78125 2.09375 
Q 45.015625 0.34375 40.984375 -0.53125 
Q 36.96875 -1.421875 32.421875 -1.421875 
Q 20.0625 -1.421875 12.78125 6.34375 
Q 5.515625 14.109375 5.515625 27.296875 
Q 5.515625 40.671875 12.859375 48.328125 
Q 20.21875 56 33.015625 56 
Q 37.15625 56 41.109375 55.140625 
Q 45.0625 54.296875 48.78125 52.59375 
z
" id="DejaVuSans-99"/>
      <path d="M 56.203125 29.59375 
L 56.203125 25.203125 
L 14.890625 25.203125 
Q 15.484375 15.921875 20.484375 11.0625 
Q 25.484375 6.203125 34.421875 6.203125 
Q 39.59375 6.203125 44.453125 7.46875 
Q 49.3125 8.734375 54.109375 11.28125 
L 54.109375 2.78125 
Q 49.265625 0.734375 44.1875 -0.34375 
Q 39.109375 -1.421875 33.890625 -1.421875 
Q 20.796875 -1.421875 13.15625 6.1875 
Q 5.515625 13.8125 5.515625 26.8125 
Q 5.515625 40.234375 12.765625 48.109375 
Q 20.015625 56 32.328125 56 
Q 43.359375 56 49.78125 48.890625 
Q 56.203125 41.796875 56.203125 29.59375 
z
M 47.21875 32.234375 
Q 47.125 39.59375 43.09375 43.984375 
Q 39.0625 48.390625 32.421875 48.390625 
Q 24.90625 48.390625 20.390625 44.140625 
Q 15.875 39.890625 15.1875 32.171875 
z
" id="DejaVuSans-101"/>
      <path d="M 34.28125 27.484375 
Q 23.390625 27.484375 19.1875 25 
Q 14.984375 22.515625 14.984375 16.5 
Q 14.984375 11.71875 18.140625 8.90625 
Q 21.296875 6.109375 26.703125 6.109375 
Q 34.1875 6.109375 38.703125 11.40625 
Q 43.21875 16.703125 43.21875 25.484375 
L 43.21875 27.484375 
z
M 52.203125 31.203125 
L 52.203125 0 
L 43.21875 0 
L 43.21875 8.296875 
Q 40.140625 3.328125 35.546875 0.953125 
Q 30.953125 -1.421875 24.3125 -1.421875 
Q 15.921875 -1.421875 10.953125 3.296875 
Q 6 8.015625 6 15.921875 
Q 6 25.140625 12.171875 29.828125 
Q 18.359375 34.515625 30.609375 34.515625 
L 43.21875 34.515625 
L 43.21875 35.40625 
Q 43.21875 41.609375 39.140625 45 
Q 35.0625 48.390625 27.6875 48.390625 
Q 23 48.390625 18.546875 47.265625 
Q 14.109375 46.140625 10.015625 43.890625 
L 10.015625 52.203125 
Q 14.9375 54.109375 19.578125 55.046875 
Q 24.21875 56 28.609375 56 
Q 40.484375 56 46.34375 49.84375 
Q 52.203125 43.703125 52.203125 31.203125 
z
" id="DejaVuSans-97"/>
      <path d="M 54.890625 33.015625 
L 54.890625 0 
L 45.90625 0 
L 45.90625 32.71875 
Q 45.90625 40.484375 42.875 44.328125 
Q 39.84375 48.1875 33.796875 48.1875 
Q 26.515625 48.1875 22.3125 43.546875 
Q 18.109375 38.921875 18.109375 30.90625 
L 18.109375 0 
L 9.078125 0 
L 9.078125 54.6875 
L 18.109375 54.6875 
L 18.109375 46.1875 
Q 21.34375 51.125 25.703125 53.5625 
Q 30.078125 56 35.796875 56 
Q 45.21875 56 50.046875 50.171875 
Q 54.890625 44.34375 54.890625 33.015625 
z
" id="DejaVuSans-110"/>
      <path d="M 50.984375 -16.609375 
L 50.984375 -23.578125 
L -0.984375 -23.578125 
L -0.984375 -16.609375 
z
" id="DejaVuSans-95"/>
      <path d="M 18.109375 8.203125 
L 18.109375 -20.796875 
L 9.078125 -20.796875 
L 9.078125 54.6875 
L 18.109375 54.6875 
L 18.109375 46.390625 
Q 20.953125 51.265625 25.265625 53.625 
Q 29.59375 56 35.59375 56 
Q 45.5625 56 51.78125 48.09375 
Q 58.015625 40.1875 58.015625 27.296875 
Q 58.015625 14.40625 51.78125 6.484375 
Q 45.5625 -1.421875 35.59375 -1.421875 
Q 29.59375 -1.421875 25.265625 0.953125 
Q 20.953125 3.328125 18.109375 8.203125 
z
M 48.6875 27.296875 
Q 48.6875 37.203125 44.609375 42.84375 
Q 40.53125 48.484375 33.40625 48.484375 
Q 26.265625 48.484375 22.1875 42.84375 
Q 18.109375 37.203125 18.109375 27.296875 
Q 18.109375 17.390625 22.1875 11.75 
Q 26.265625 6.109375 33.40625 6.109375 
Q 40.53125 6.109375 44.609375 11.75 
Q 48.6875 17.390625 48.6875 27.296875 
z
" id="DejaVuSans-112"/>
      <path d="M 41.109375 46.296875 
Q 39.59375 47.171875 37.8125 47.578125 
Q 36.03125 48 33.890625 48 
Q 26.265625 48 22.1875 43.046875 
Q 18.109375 38.09375 18.109375 28.8125 
L 18.109375 0 
L 9.078125 0 
L 9.078125 54.6875 
L 18.109375 54.6875 
L 18.109375 46.1875 
Q 20.953125 51.171875 25.484375 53.578125 
Q 30.03125 56 36.53125 56 
Q 37.453125 56 38.578125 55.875 
Q 39.703125 55.765625 41.0625 55.515625 
z
" id="DejaVuSans-114"/>
      <path d="M 54.890625 54.6875 
L 35.109375 28.078125 
L 55.90625 0 
L 45.3125 0 
L 29.390625 21.484375 
L 13.484375 0 
L 2.875 0 
L 24.125 28.609375 
L 4.6875 54.6875 
L 15.28125 54.6875 
L 29.78125 35.203125 
L 44.28125 54.6875 
z
" id="DejaVuSans-120"/>
      <path d="M 9.421875 54.6875 
L 18.40625 54.6875 
L 18.40625 0 
L 9.421875 0 
z
M 9.421875 75.984375 
L 18.40625 75.984375 
L 18.40625 64.59375 
L 9.421875 64.59375 
z
" id="DejaVuSans-105"/>
      <path d="M 52 44.1875 
Q 55.375 50.25 60.0625 53.125 
Q 64.75 56 71.09375 56 
Q 79.640625 56 84.28125 50.015625 
Q 88.921875 44.046875 88.921875 33.015625 
L 88.921875 0 
L 79.890625 0 
L 79.890625 32.71875 
Q 79.890625 40.578125 77.09375 44.375 
Q 74.3125 48.1875 68.609375 48.1875 
Q 61.625 48.1875 57.5625 43.546875 
Q 53.515625 38.921875 53.515625 30.90625 
L 53.515625 0 
L 44.484375 0 
L 44.484375 32.71875 
Q 44.484375 40.625 41.703125 44.40625 
Q 38.921875 48.1875 33.109375 48.1875 
Q 26.21875 48.1875 22.15625 43.53125 
Q 18.109375 38.875 18.109375 30.90625 
L 18.109375 0 
L 9.078125 0 
L 9.078125 54.6875 
L 18.109375 54.6875 
L 18.109375 46.1875 
Q 21.1875 51.21875 25.484375 53.609375 
Q 29.78125 56 35.6875 56 
Q 41.65625 56 45.828125 52.96875 
Q 50 49.953125 52 44.1875 
z
" id="DejaVuSans-109"/>
      <path d="M 18.3125 70.21875 
L 18.3125 54.6875 
L 36.8125 54.6875 
L 36.8125 47.703125 
L 18.3125 47.703125 
L 18.3125 18.015625 
Q 18.3125 11.328125 20.140625 9.421875 
Q 21.96875 7.515625 27.59375 7.515625 
L 36.8125 7.515625 
L 36.8125 0 
L 27.59375 0 
Q 17.1875 0 13.234375 3.875 
Q 9.28125 7.765625 9.28125 18.015625 
L 9.28125 47.703125 
L 2.6875 47.703125 
L 2.6875 54.6875 
L 9.28125 54.6875 
L 9.28125 70.21875 
z
" id="DejaVuSans-116"/>
      <path d="M 32.171875 -5.078125 
Q 28.375 -14.84375 24.75 -17.8125 
Q 21.140625 -20.796875 15.09375 -20.796875 
L 7.90625 -20.796875 
L 7.90625 -13.28125 
L 13.1875 -13.28125 
Q 16.890625 -13.28125 18.9375 -11.515625 
Q 21 -9.765625 23.484375 -3.21875 
L 25.09375 0.875 
L 2.984375 54.6875 
L 12.5 54.6875 
L 29.59375 11.921875 
L 46.6875 54.6875 
L 56.203125 54.6875 
z
" id="DejaVuSans-121"/>
     </defs>
     <g transform="translate(270.585156 569.588437)scale(0.1 -0.1)">
      <use xlink:href="#DejaVuSans-111"/>
      <use x="61.181641" xlink:href="#DejaVuSans-99"/>
      <use x="116.162109" xlink:href="#DejaVuSans-101"/>
      <use x="177.685547" xlink:href="#DejaVuSans-97"/>
      <use x="238.964844" xlink:href="#DejaVuSans-110"/>
      <use x="302.34375" xlink:href="#DejaVuSans-95"/>
      <use x="352.34375" xlink:href="#DejaVuSans-112"/>
      <use x="415.820312" xlink:href="#DejaVuSans-114"/>
      <use x="456.902344" xlink:href="#DejaVuSans-111"/>
      <use x="518.037109" xlink:href="#DejaVuSans-120"/>
      <use x="577.216797" xlink:href="#DejaVuSans-105"/>
      <use x="605" xlink:href="#DejaVuSans-109"/>
      <use x="702.412109" xlink:href="#DejaVuSans-105"/>
      <use x="730.195312" xlink:href="#DejaVuSans-116"/>
      <use x="769.404297" xlink:href="#DejaVuSans-121"/>
     </g>
    </g>
   </g>
   <g id="matplotlib.axis_2">
    <g id="ytick_1">
     <g id="line2d_5">
      <defs>
       <path d="M 0 0 
L -3.5 0 
" id="m540f709ceb" style="stroke:#000000;stroke-width:0.8;"/>
      </defs>
      <g>
       <use style="stroke:#000000;stroke-width:0.8;" x="66.33125" xlink:href="#m540f709ceb" y="495.826127"/>
      </g>
     </g>
     <g id="text_6">
      <!-- 0 -->
      <defs>
       <path d="M 31.78125 66.40625 
Q 24.171875 66.40625 20.328125 58.90625 
Q 16.5 51.421875 16.5 36.375 
Q 16.5 21.390625 20.328125 13.890625 
Q 24.171875 6.390625 31.78125 6.390625 
Q 39.453125 6.390625 43.28125 13.890625 
Q 47.125 21.390625 47.125 36.375 
Q 47.125 51.421875 43.28125 58.90625 
Q 39.453125 66.40625 31.78125 66.40625 
z
M 31.78125 74.21875 
Q 44.046875 74.21875 50.515625 64.515625 
Q 56.984375 54.828125 56.984375 36.375 
Q 56.984375 17.96875 50.515625 8.265625 
Q 44.046875 -1.421875 31.78125 -1.421875 
Q 19.53125 -1.421875 13.0625 8.265625 
Q 6.59375 17.96875 6.59375 36.375 
Q 6.59375 54.828125 13.0625 64.515625 
Q 19.53125 74.21875 31.78125 74.21875 
z
" id="DejaVuSans-48"/>
      </defs>
      <g transform="translate(52.96875 499.625346)scale(0.1 -0.1)">
       <use xlink:href="#DejaVuSans-48"/>
      </g>
     </g>
    </g>
    <g id="ytick_2">
     <g id="line2d_6">
      <g>
       <use style="stroke:#000000;stroke-width:0.8;" x="66.33125" xlink:href="#m540f709ceb" y="420.67211"/>
      </g>
     </g>
     <g id="text_7">
      <!-- 100000 -->
      <g transform="translate(21.15625 424.471329)scale(0.1 -0.1)">
       <use xlink:href="#DejaVuSans-49"/>
       <use x="63.623047" xlink:href="#DejaVuSans-48"/>
       <use x="127.246094" xlink:href="#DejaVuSans-48"/>
       <use x="190.869141" xlink:href="#DejaVuSans-48"/>
       <use x="254.492188" xlink:href="#DejaVuSans-48"/>
       <use x="318.115234" xlink:href="#DejaVuSans-48"/>
      </g>
     </g>
    </g>
    <g id="ytick_3">
     <g id="line2d_7">
      <g>
       <use style="stroke:#000000;stroke-width:0.8;" x="66.33125" xlink:href="#m540f709ceb" y="345.518094"/>
      </g>
     </g>
     <g id="text_8">
      <!-- 200000 -->
      <defs>
       <path d="M 19.1875 8.296875 
L 53.609375 8.296875 
L 53.609375 0 
L 7.328125 0 
L 7.328125 8.296875 
Q 12.9375 14.109375 22.625 23.890625 
Q 32.328125 33.6875 34.8125 36.53125 
Q 39.546875 41.84375 41.421875 45.53125 
Q 43.3125 49.21875 43.3125 52.78125 
Q 43.3125 58.59375 39.234375 62.25 
Q 35.15625 65.921875 28.609375 65.921875 
Q 23.96875 65.921875 18.8125 64.3125 
Q 13.671875 62.703125 7.8125 59.421875 
L 7.8125 69.390625 
Q 13.765625 71.78125 18.9375 73 
Q 24.125 74.21875 28.421875 74.21875 
Q 39.75 74.21875 46.484375 68.546875 
Q 53.21875 62.890625 53.21875 53.421875 
Q 53.21875 48.921875 51.53125 44.890625 
Q 49.859375 40.875 45.40625 35.40625 
Q 44.1875 33.984375 37.640625 27.21875 
Q 31.109375 20.453125 19.1875 8.296875 
z
" id="DejaVuSans-50"/>
      </defs>
      <g transform="translate(21.15625 349.317312)scale(0.1 -0.1)">
       <use xlink:href="#DejaVuSans-50"/>
       <use x="63.623047" xlink:href="#DejaVuSans-48"/>
       <use x="127.246094" xlink:href="#DejaVuSans-48"/>
       <use x="190.869141" xlink:href="#DejaVuSans-48"/>
       <use x="254.492188" xlink:href="#DejaVuSans-48"/>
       <use x="318.115234" xlink:href="#DejaVuSans-48"/>
      </g>
     </g>
    </g>
    <g id="ytick_4">
     <g id="line2d_8">
      <g>
       <use style="stroke:#000000;stroke-width:0.8;" x="66.33125" xlink:href="#m540f709ceb" y="270.364077"/>
      </g>
     </g>
     <g id="text_9">
      <!-- 300000 -->
      <defs>
       <path d="M 40.578125 39.3125 
Q 47.65625 37.796875 51.625 33 
Q 55.609375 28.21875 55.609375 21.1875 
Q 55.609375 10.40625 48.1875 4.484375 
Q 40.765625 -1.421875 27.09375 -1.421875 
Q 22.515625 -1.421875 17.65625 -0.515625 
Q 12.796875 0.390625 7.625 2.203125 
L 7.625 11.71875 
Q 11.71875 9.328125 16.59375 8.109375 
Q 21.484375 6.890625 26.8125 6.890625 
Q 36.078125 6.890625 40.9375 10.546875 
Q 45.796875 14.203125 45.796875 21.1875 
Q 45.796875 27.640625 41.28125 31.265625 
Q 36.765625 34.90625 28.71875 34.90625 
L 20.21875 34.90625 
L 20.21875 43.015625 
L 29.109375 43.015625 
Q 36.375 43.015625 40.234375 45.921875 
Q 44.09375 48.828125 44.09375 54.296875 
Q 44.09375 59.90625 40.109375 62.90625 
Q 36.140625 65.921875 28.71875 65.921875 
Q 24.65625 65.921875 20.015625 65.03125 
Q 15.375 64.15625 9.8125 62.3125 
L 9.8125 71.09375 
Q 15.4375 72.65625 20.34375 73.4375 
Q 25.25 74.21875 29.59375 74.21875 
Q 40.828125 74.21875 47.359375 69.109375 
Q 53.90625 64.015625 53.90625 55.328125 
Q 53.90625 49.265625 50.4375 45.09375 
Q 46.96875 40.921875 40.578125 39.3125 
z
" id="DejaVuSans-51"/>
      </defs>
      <g transform="translate(21.15625 274.163296)scale(0.1 -0.1)">
       <use xlink:href="#DejaVuSans-51"/>
       <use x="63.623047" xlink:href="#DejaVuSans-48"/>
       <use x="127.246094" xlink:href="#DejaVuSans-48"/>
       <use x="190.869141" xlink:href="#DejaVuSans-48"/>
       <use x="254.492188" xlink:href="#DejaVuSans-48"/>
       <use x="318.115234" xlink:href="#DejaVuSans-48"/>
      </g>
     </g>
    </g>
    <g id="ytick_5">
     <g id="line2d_9">
      <g>
       <use style="stroke:#000000;stroke-width:0.8;" x="66.33125" xlink:href="#m540f709ceb" y="195.21006"/>
      </g>
     </g>
     <g id="text_10">
      <!-- 400000 -->
      <defs>
       <path d="M 37.796875 64.3125 
L 12.890625 25.390625 
L 37.796875 25.390625 
z
M 35.203125 72.90625 
L 47.609375 72.90625 
L 47.609375 25.390625 
L 58.015625 25.390625 
L 58.015625 17.1875 
L 47.609375 17.1875 
L 47.609375 0 
L 37.796875 0 
L 37.796875 17.1875 
L 4.890625 17.1875 
L 4.890625 26.703125 
z
" id="DejaVuSans-52"/>
      </defs>
      <g transform="translate(21.15625 199.009279)scale(0.1 -0.1)">
       <use xlink:href="#DejaVuSans-52"/>
       <use x="63.623047" xlink:href="#DejaVuSans-48"/>
       <use x="127.246094" xlink:href="#DejaVuSans-48"/>
       <use x="190.869141" xlink:href="#DejaVuSans-48"/>
       <use x="254.492188" xlink:href="#DejaVuSans-48"/>
       <use x="318.115234" xlink:href="#DejaVuSans-48"/>
      </g>
     </g>
    </g>
    <g id="ytick_6">
     <g id="line2d_10">
      <g>
       <use style="stroke:#000000;stroke-width:0.8;" x="66.33125" xlink:href="#m540f709ceb" y="120.056043"/>
      </g>
     </g>
     <g id="text_11">
      <!-- 500000 -->
      <defs>
       <path d="M 10.796875 72.90625 
L 49.515625 72.90625 
L 49.515625 64.59375 
L 19.828125 64.59375 
L 19.828125 46.734375 
Q 21.96875 47.46875 24.109375 47.828125 
Q 26.265625 48.1875 28.421875 48.1875 
Q 40.625 48.1875 47.75 41.5 
Q 54.890625 34.8125 54.890625 23.390625 
Q 54.890625 11.625 47.5625 5.09375 
Q 40.234375 -1.421875 26.90625 -1.421875 
Q 22.3125 -1.421875 17.546875 -0.640625 
Q 12.796875 0.140625 7.71875 1.703125 
L 7.71875 11.625 
Q 12.109375 9.234375 16.796875 8.0625 
Q 21.484375 6.890625 26.703125 6.890625 
Q 35.15625 6.890625 40.078125 11.328125 
Q 45.015625 15.765625 45.015625 23.390625 
Q 45.015625 31 40.078125 35.4375 
Q 35.15625 39.890625 26.703125 39.890625 
Q 22.75 39.890625 18.8125 39.015625 
Q 14.890625 38.140625 10.796875 36.28125 
z
" id="DejaVuSans-53"/>
      </defs>
      <g transform="translate(21.15625 123.855262)scale(0.1 -0.1)">
       <use xlink:href="#DejaVuSans-53"/>
       <use x="63.623047" xlink:href="#DejaVuSans-48"/>
       <use x="127.246094" xlink:href="#DejaVuSans-48"/>
       <use x="190.869141" xlink:href="#DejaVuSans-48"/>
       <use x="254.492188" xlink:href="#DejaVuSans-48"/>
       <use x="318.115234" xlink:href="#DejaVuSans-48"/>
      </g>
     </g>
    </g>
    <g id="ytick_7">
     <g id="line2d_11">
      <g>
       <use style="stroke:#000000;stroke-width:0.8;" x="66.33125" xlink:href="#m540f709ceb" y="44.902027"/>
      </g>
     </g>
     <g id="text_12">
      <!-- 600000 -->
      <defs>
       <path d="M 33.015625 40.375 
Q 26.375 40.375 22.484375 35.828125 
Q 18.609375 31.296875 18.609375 23.390625 
Q 18.609375 15.53125 22.484375 10.953125 
Q 26.375 6.390625 33.015625 6.390625 
Q 39.65625 6.390625 43.53125 10.953125 
Q 47.40625 15.53125 47.40625 23.390625 
Q 47.40625 31.296875 43.53125 35.828125 
Q 39.65625 40.375 33.015625 40.375 
z
M 52.59375 71.296875 
L 52.59375 62.3125 
Q 48.875 64.0625 45.09375 64.984375 
Q 41.3125 65.921875 37.59375 65.921875 
Q 27.828125 65.921875 22.671875 59.328125 
Q 17.53125 52.734375 16.796875 39.40625 
Q 19.671875 43.65625 24.015625 45.921875 
Q 28.375 48.1875 33.59375 48.1875 
Q 44.578125 48.1875 50.953125 41.515625 
Q 57.328125 34.859375 57.328125 23.390625 
Q 57.328125 12.15625 50.6875 5.359375 
Q 44.046875 -1.421875 33.015625 -1.421875 
Q 20.359375 -1.421875 13.671875 8.265625 
Q 6.984375 17.96875 6.984375 36.375 
Q 6.984375 53.65625 15.1875 63.9375 
Q 23.390625 74.21875 37.203125 74.21875 
Q 40.921875 74.21875 44.703125 73.484375 
Q 48.484375 72.75 52.59375 71.296875 
z
" id="DejaVuSans-54"/>
      </defs>
      <g transform="translate(21.15625 48.701245)scale(0.1 -0.1)">
       <use xlink:href="#DejaVuSans-54"/>
       <use x="63.623047" xlink:href="#DejaVuSans-48"/>
       <use x="127.246094" xlink:href="#DejaVuSans-48"/>
       <use x="190.869141" xlink:href="#DejaVuSans-48"/>
       <use x="254.492188" xlink:href="#DejaVuSans-48"/>
       <use x="318.115234" xlink:href="#DejaVuSans-48"/>
      </g>
     </g>
    </g>
    <g id="text_13">
     <!-- median_house_value -->
     <defs>
      <path d="M 45.40625 46.390625 
L 45.40625 75.984375 
L 54.390625 75.984375 
L 54.390625 0 
L 45.40625 0 
L 45.40625 8.203125 
Q 42.578125 3.328125 38.25 0.953125 
Q 33.9375 -1.421875 27.875 -1.421875 
Q 17.96875 -1.421875 11.734375 6.484375 
Q 5.515625 14.40625 5.515625 27.296875 
Q 5.515625 40.1875 11.734375 48.09375 
Q 17.96875 56 27.875 56 
Q 33.9375 56 38.25 53.625 
Q 42.578125 51.265625 45.40625 46.390625 
z
M 14.796875 27.296875 
Q 14.796875 17.390625 18.875 11.75 
Q 22.953125 6.109375 30.078125 6.109375 
Q 37.203125 6.109375 41.296875 11.75 
Q 45.40625 17.390625 45.40625 27.296875 
Q 45.40625 37.203125 41.296875 42.84375 
Q 37.203125 48.484375 30.078125 48.484375 
Q 22.953125 48.484375 18.875 42.84375 
Q 14.796875 37.203125 14.796875 27.296875 
z
" id="DejaVuSans-100"/>
      <path d="M 54.890625 33.015625 
L 54.890625 0 
L 45.90625 0 
L 45.90625 32.71875 
Q 45.90625 40.484375 42.875 44.328125 
Q 39.84375 48.1875 33.796875 48.1875 
Q 26.515625 48.1875 22.3125 43.546875 
Q 18.109375 38.921875 18.109375 30.90625 
L 18.109375 0 
L 9.078125 0 
L 9.078125 75.984375 
L 18.109375 75.984375 
L 18.109375 46.1875 
Q 21.34375 51.125 25.703125 53.5625 
Q 30.078125 56 35.796875 56 
Q 45.21875 56 50.046875 50.171875 
Q 54.890625 44.34375 54.890625 33.015625 
z
" id="DejaVuSans-104"/>
      <path d="M 8.5 21.578125 
L 8.5 54.6875 
L 17.484375 54.6875 
L 17.484375 21.921875 
Q 17.484375 14.15625 20.5 10.265625 
Q 23.53125 6.390625 29.59375 6.390625 
Q 36.859375 6.390625 41.078125 11.03125 
Q 45.3125 15.671875 45.3125 23.6875 
L 45.3125 54.6875 
L 54.296875 54.6875 
L 54.296875 0 
L 45.3125 0 
L 45.3125 8.40625 
Q 42.046875 3.421875 37.71875 1 
Q 33.40625 -1.421875 27.6875 -1.421875 
Q 18.265625 -1.421875 13.375 4.4375 
Q 8.5 10.296875 8.5 21.578125 
z
M 31.109375 56 
z
" id="DejaVuSans-117"/>
      <path d="M 44.28125 53.078125 
L 44.28125 44.578125 
Q 40.484375 46.53125 36.375 47.5 
Q 32.28125 48.484375 27.875 48.484375 
Q 21.1875 48.484375 17.84375 46.4375 
Q 14.5 44.390625 14.5 40.28125 
Q 14.5 37.15625 16.890625 35.375 
Q 19.28125 33.59375 26.515625 31.984375 
L 29.59375 31.296875 
Q 39.15625 29.25 43.1875 25.515625 
Q 47.21875 21.78125 47.21875 15.09375 
Q 47.21875 7.46875 41.1875 3.015625 
Q 35.15625 -1.421875 24.609375 -1.421875 
Q 20.21875 -1.421875 15.453125 -0.5625 
Q 10.6875 0.296875 5.421875 2 
L 5.421875 11.28125 
Q 10.40625 8.6875 15.234375 7.390625 
Q 20.0625 6.109375 24.8125 6.109375 
Q 31.15625 6.109375 34.5625 8.28125 
Q 37.984375 10.453125 37.984375 14.40625 
Q 37.984375 18.0625 35.515625 20.015625 
Q 33.0625 21.96875 24.703125 23.78125 
L 21.578125 24.515625 
Q 13.234375 26.265625 9.515625 29.90625 
Q 5.8125 33.546875 5.8125 39.890625 
Q 5.8125 47.609375 11.28125 51.796875 
Q 16.75 56 26.8125 56 
Q 31.78125 56 36.171875 55.265625 
Q 40.578125 54.546875 44.28125 53.078125 
z
" id="DejaVuSans-115"/>
      <path d="M 2.984375 54.6875 
L 12.5 54.6875 
L 29.59375 8.796875 
L 46.6875 54.6875 
L 56.203125 54.6875 
L 35.6875 0 
L 23.484375 0 
z
" id="DejaVuSans-118"/>
      <path d="M 9.421875 75.984375 
L 18.40625 75.984375 
L 18.40625 0 
L 9.421875 0 
z
" id="DejaVuSans-108"/>
     </defs>
     <g transform="translate(14.798438 334.293906)rotate(-90)scale(0.1 -0.1)">
      <use xlink:href="#DejaVuSans-109"/>
      <use x="97.412109" xlink:href="#DejaVuSans-101"/>
      <use x="158.935547" xlink:href="#DejaVuSans-100"/>
      <use x="222.412109" xlink:href="#DejaVuSans-105"/>
      <use x="250.195312" xlink:href="#DejaVuSans-97"/>
      <use x="311.474609" xlink:href="#DejaVuSans-110"/>
      <use x="374.853516" xlink:href="#DejaVuSans-95"/>
      <use x="424.853516" xlink:href="#DejaVuSans-104"/>
      <use x="488.232422" xlink:href="#DejaVuSans-111"/>
      <use x="549.414062" xlink:href="#DejaVuSans-117"/>
      <use x="612.792969" xlink:href="#DejaVuSans-115"/>
      <use x="664.892578" xlink:href="#DejaVuSans-101"/>
      <use x="726.416016" xlink:href="#DejaVuSans-95"/>
      <use x="776.416016" xlink:href="#DejaVuSans-118"/>
      <use x="835.595703" xlink:href="#DejaVuSans-97"/>
      <use x="896.875" xlink:href="#DejaVuSans-108"/>
      <use x="924.658203" xlink:href="#DejaVuSans-117"/>
      <use x="988.037109" xlink:href="#DejaVuSans-101"/>
     </g>
    </g>
   </g>
   <g id="line2d_12">
    <path clip-path="url(#p71d718edd5)" d="M 127.752344 468.244603 
L 127.752344 159.587056 
" style="fill:none;stroke:#3d3d3d;stroke-linecap:square;stroke-width:1.5;"/>
   </g>
   <g id="line2d_13">
    <path clip-path="url(#p71d718edd5)" d="M 127.752344 370.112246 
L 127.752344 285.225784 
" style="fill:none;stroke:#3d3d3d;stroke-linecap:square;stroke-width:4.5;"/>
   </g>
   <g id="line2d_14">
    <path clip-path="url(#p71d718edd5)" d="M 250.594531 434.350141 
L 250.594531 120.055292 
" style="fill:none;stroke:#3d3d3d;stroke-linecap:square;stroke-width:1.5;"/>
   </g>
   <g id="line2d_15">
    <path clip-path="url(#p71d718edd5)" d="M 250.594531 381.930215 
L 250.594531 229.367561 
" style="fill:none;stroke:#3d3d3d;stroke-linecap:square;stroke-width:4.5;"/>
   </g>
   <g id="line2d_16">
    <path clip-path="url(#p71d718edd5)" d="M 373.436719 465.76452 
L 373.436719 308.918087 
" style="fill:none;stroke:#3d3d3d;stroke-linecap:square;stroke-width:1.5;"/>
   </g>
   <g id="line2d_17">
    <path clip-path="url(#p71d718edd5)" d="M 373.436719 434.181045 
L 373.436719 381.836272 
" style="fill:none;stroke:#3d3d3d;stroke-linecap:square;stroke-width:4.5;"/>
   </g>
   <g id="line2d_18">
    <path clip-path="url(#p71d718edd5)" d="M 496.278906 445.097166 
L 496.278906 120.055292 
" style="fill:none;stroke:#3d3d3d;stroke-linecap:square;stroke-width:1.5;"/>
   </g>
   <g id="line2d_19">
    <path clip-path="url(#p71d718edd5)" d="M 496.278906 383.207833 
L 496.278906 240.001854 
" style="fill:none;stroke:#3d3d3d;stroke-linecap:square;stroke-width:4.5;"/>
   </g>
   <g id="patch_3">
    <path d="M 66.33125 541.311875 
L 66.33125 22.318125 
" style="fill:none;stroke:#000000;stroke-linecap:square;stroke-linejoin:miter;stroke-width:0.8;"/>
   </g>
   <g id="patch_4">
    <path d="M 66.33125 541.311875 
L 557.7 541.311875 
" style="fill:none;stroke:#000000;stroke-linecap:square;stroke-linejoin:miter;stroke-width:0.8;"/>
   </g>
   <g id="PathCollection_1">
    <defs>
     <path d="M 0 1.5 
C 0.397805 1.5 0.77937 1.341951 1.06066 1.06066 
C 1.341951 0.77937 1.5 0.397805 1.5 0 
C 1.5 -0.397805 1.341951 -0.77937 1.06066 -1.06066 
C 0.77937 -1.341951 0.397805 -1.5 0 -1.5 
C -0.397805 -1.5 -0.77937 -1.341951 -1.06066 -1.06066 
C -1.341951 -0.77937 -1.5 -0.397805 -1.5 0 
C -1.5 0.397805 -1.341951 0.77937 -1.06066 1.06066 
C -0.77937 1.341951 -0.397805 1.5 0 1.5 
z
" id="m016dfe30e3" style="stroke:#3d3d3d;"/>
    </defs>
    <g clip-path="url(#p71d718edd5)">
     <use style="fill:#ffffff;stroke:#3d3d3d;" x="127.752344" xlink:href="#m016dfe30e3" y="331.163676"/>
    </g>
   </g>
   <g id="PathCollection_2">
    <g clip-path="url(#p71d718edd5)">
     <use style="fill:#ffffff;stroke:#3d3d3d;" x="250.594531" xlink:href="#m016dfe30e3" y="316.508643"/>
    </g>
   </g>
   <g id="PathCollection_3">
    <g clip-path="url(#p71d718edd5)">
     <use style="fill:#ffffff;stroke:#3d3d3d;" x="373.436719" xlink:href="#m016dfe30e3" y="411.916667"/>
    </g>
   </g>
   <g id="PathCollection_4">
    <g clip-path="url(#p71d718edd5)">
     <use style="fill:#ffffff;stroke:#3d3d3d;" x="496.278906" xlink:href="#m016dfe30e3" y="325.602279"/>
    </g>
   </g>
   <g id="text_14">
    <!-- median_house_value distribution by ocean_proximity -->
    <defs>
     <path d="M 48.6875 27.296875 
Q 48.6875 37.203125 44.609375 42.84375 
Q 40.53125 48.484375 33.40625 48.484375 
Q 26.265625 48.484375 22.1875 42.84375 
Q 18.109375 37.203125 18.109375 27.296875 
Q 18.109375 17.390625 22.1875 11.75 
Q 26.265625 6.109375 33.40625 6.109375 
Q 40.53125 6.109375 44.609375 11.75 
Q 48.6875 17.390625 48.6875 27.296875 
z
M 18.109375 46.390625 
Q 20.953125 51.265625 25.265625 53.625 
Q 29.59375 56 35.59375 56 
Q 45.5625 56 51.78125 48.09375 
Q 58.015625 40.1875 58.015625 27.296875 
Q 58.015625 14.40625 51.78125 6.484375 
Q 45.5625 -1.421875 35.59375 -1.421875 
Q 29.59375 -1.421875 25.265625 0.953125 
Q 20.953125 3.328125 18.109375 8.203125 
L 18.109375 0 
L 9.078125 0 
L 9.078125 75.984375 
L 18.109375 75.984375 
z
" id="DejaVuSans-98"/>
    </defs>
    <g transform="translate(152.051875 16.318125)scale(0.12 -0.12)">
     <use xlink:href="#DejaVuSans-109"/>
     <use x="97.412109" xlink:href="#DejaVuSans-101"/>
     <use x="158.935547" xlink:href="#DejaVuSans-100"/>
     <use x="222.412109" xlink:href="#DejaVuSans-105"/>
     <use x="250.195312" xlink:href="#DejaVuSans-97"/>
     <use x="311.474609" xlink:href="#DejaVuSans-110"/>
     <use x="374.853516" xlink:href="#DejaVuSans-95"/>
     <use x="424.853516" xlink:href="#DejaVuSans-104"/>
     <use x="488.232422" xlink:href="#DejaVuSans-111"/>
     <use x="549.414062" xlink:href="#DejaVuSans-117"/>
     <use x="612.792969" xlink:href="#DejaVuSans-115"/>
     <use x="664.892578" xlink:href="#DejaVuSans-101"/>
     <use x="726.416016" xlink:href="#DejaVuSans-95"/>
     <use x="776.416016" xlink:href="#DejaVuSans-118"/>
     <use x="835.595703" xlink:href="#DejaVuSans-97"/>
     <use x="896.875" xlink:href="#DejaVuSans-108"/>
     <use x="924.658203" xlink:href="#DejaVuSans-117"/>
     <use x="988.037109" xlink:href="#DejaVuSans-101"/>
     <use x="1049.560547" xlink:href="#DejaVuSans-32"/>
     <use x="1081.347656" xlink:href="#DejaVuSans-100"/>
     <use x="1144.824219" xlink:href="#DejaVuSans-105"/>
     <use x="1172.607422" xlink:href="#DejaVuSans-115"/>
     <use x="1224.707031" xlink:href="#DejaVuSans-116"/>
     <use x="1263.916016" xlink:href="#DejaVuSans-114"/>
     <use x="1305.029297" xlink:href="#DejaVuSans-105"/>
     <use x="1332.8125" xlink:href="#DejaVuSans-98"/>
     <use x="1396.289062" xlink:href="#DejaVuSans-117"/>
     <use x="1459.667969" xlink:href="#DejaVuSans-116"/>
     <use x="1498.876953" xlink:href="#DejaVuSans-105"/>
     <use x="1526.660156" xlink:href="#DejaVuSans-111"/>
     <use x="1587.841797" xlink:href="#DejaVuSans-110"/>
     <use x="1651.220703" xlink:href="#DejaVuSans-32"/>
     <use x="1683.007812" xlink:href="#DejaVuSans-98"/>
     <use x="1746.484375" xlink:href="#DejaVuSans-121"/>
     <use x="1805.664062" xlink:href="#DejaVuSans-32"/>
     <use x="1837.451172" xlink:href="#DejaVuSans-111"/>
     <use x="1898.632812" xlink:href="#DejaVuSans-99"/>
     <use x="1953.613281" xlink:href="#DejaVuSans-101"/>
     <use x="2015.136719" xlink:href="#DejaVuSans-97"/>
     <use x="2076.416016" xlink:href="#DejaVuSans-110"/>
     <use x="2139.794922" xlink:href="#DejaVuSans-95"/>
     <use x="2189.794922" xlink:href="#DejaVuSans-112"/>
     <use x="2253.271484" xlink:href="#DejaVuSans-114"/>
     <use x="2294.353516" xlink:href="#DejaVuSans-111"/>
     <use x="2355.488281" xlink:href="#DejaVuSans-120"/>
     <use x="2414.667969" xlink:href="#DejaVuSans-105"/>
     <use x="2442.451172" xlink:href="#DejaVuSans-109"/>
     <use x="2539.863281" xlink:href="#DejaVuSans-105"/>
     <use x="2567.646484" xlink:href="#DejaVuSans-116"/>
     <use x="2606.855469" xlink:href="#DejaVuSans-121"/>
    </g>
   </g>
  </g>
 </g>
 <defs>
  <clipPath id="p71d718edd5">
   <rect height="518.99375" width="491.36875" x="66.33125" y="22.318125"/>
  </clipPath>
 </defs>
</svg>
